<?xml version="1.0" encoding="UTF-8"?>
<svg id="Layer_1" xmlns="http://www.w3.org/2000/svg" xmlns:xlink="http://www.w3.org/1999/xlink" version="1.1" viewBox="0 0 50 50">
  <!-- Generator: Adobe Illustrator 29.1.0, SVG Export Plug-In . SVG Version: 2.1.0 Build 142)  -->
  <defs>
    <style>
      .st0 {
        fill: none;
      }

      .st1 {
        mask: url(#mask);
      }

      .st2 {
        fill: #009cdb;
      }

      .st3 {
        fill: #353635;
      }

      .st4 {
        fill: #ff6d2d;
      }

      .st5 {
        fill: #6cc72b;
      }

      .st6 {
        fill: #fff;
      }

      .st7 {
        clip-path: url(#clippath);
      }
    </style>
    <clipPath id="clippath">
      <rect class="st0" width="50" height="50"/>
    </clipPath>
    <mask id="mask" x="10.5" y="12.2" width="31.1" height="21.7" maskUnits="userSpaceOnUse">
      <g id="mask0_2533_12187">
        <path class="st6" d="M10.5,15.8l1.1,13.9,17.5,4.2,7-18.5-10.5-3.2-15,3.6Z"/>
      </g>
    </mask>
  </defs>
  <path class="st3" d="M39.7,0H10.3C4.6,0,0,4.6,0,10.3v29.5c0,5.7,4.6,10.3,10.3,10.3h29.5c5.7,0,10.3-4.6,10.3-10.3V10.3C50,4.6,45.4,0,39.7,0"/>
  <g class="st7">
    <g>
      <path class="st6" d="M20.5,39.6l10.5-29.1h19s-2.5,6.3-2.5,6.3h-11.1s-2,5.3-2,5.3h10s-2.3,6-2.3,6h-10s-3.7,11.6-3.7,11.6h-8Z"/>
      <g class="st1">
        <g>
          <path class="st6" d="M32.8,17.9l-18.2.8,18.3.6v-1.4Z"/>
          <path class="st6" d="M35.1,19.3l-18.2.8,18.3.6v-1.4Z"/>
          <path class="st6" d="M33.8,20.7l-14.8.8,15,.6v-1.4Z"/>
          <path class="st6" d="M38.1,22.1l-17.6.8,17.7.6v-1.4Z"/>
          <path class="st6" d="M39.1,23.6l-17.3.8,17.4.6v-1.4Z"/>
          <path class="st6" d="M40,25l-17.7.8,17.8.6v-1.4Z"/>
          <path class="st6" d="M41,26.4l-18,.8,18.2.6v-1.4Z"/>
          <path class="st6" d="M41.5,27.8l-18,.8,18.1.6v-1.4Z"/>
        </g>
      </g>
      <path class="st6" d="M4.3,15.1l15.2,7.3L2.6,33.8l1.6-18.6Z"/>
      <path class="st2" d="M4.1,32.6l1.2-1c0-.2,0-.5,0-.8l-.4-7.1-.3-5.7v-1.4c-.2-1.7.5-2.9,1.5-3.6-.3,0-.5.1-.8.3,0,0,0,0,0,0,0,0,0,0,0,0,0,0,0,0,0,0,0,0,0,0,0,0,0,0,0,0,0,0,0,0,0,0,0,0,0,0,0,0,0,0,0,0,0,0,0,0,0,0,0,0,0,0,0,0,0,0,0,0-.7.6-1.2,1.5-1.5,2.7l-.4,1.8-1.2,5.5L0,31.1c-.2,1.1-.1,2,.2,2.6.9.5,2.3.1,3.7-1.1Z"/>
      <path class="st4" d="M19.6,21l-5.6-3.7-5.6-3.7c-.8-.6-1.7-.7-2.5-.6-1.1.7-1.7,1.9-1.6,3.6v1.4c.3,0,.6,0,.8.2l6.7,1.9,5.3,1.5,1.3.4c1.6.4,2.3,1.4,2.1,2.5h0c.7-1.2.4-2.6-1.1-3.5Z"/>
      <path class="st5" d="M4.3,33.8l1.7-.9h0s5.4-2.8,5.4-2.8l7.1-3.7c1.1-.6,1.9-1.2,2.3-2,.1-1.1-.6-2.1-2.1-2.5l-1.3-.4c-.2.2-.4.4-.7.6l-6.3,5.2-5,4.1-1.2,1c-1.5,1.2-2.8,1.5-3.7,1.1.6,1,2.1,1.1,3.9.2Z"/>
    </g>
  </g>
</svg>