<svg preserveAspectRatio="none" width="100%" height="100%" overflow="visible" style="display: block;" viewBox="0 0 25.0544 25.0642" fill="none" xmlns="http://www.w3.org/2000/svg">
<path id="Vector" d="M12.5346 2.2572C15.8836 2.2572 16.2802 2.27189 17.5974 2.33064C18.8214 2.3845 19.4824 2.59015 19.9231 2.76152C20.5058 2.98675 20.9268 3.26094 21.3626 3.69672C21.8033 4.13738 22.0726 4.55357 22.2978 5.13623C22.4692 5.5769 22.6748 6.2428 22.7287 7.46198C22.7874 8.78399 22.8021 9.18059 22.8021 12.5248C22.8021 15.8738 22.7874 16.2705 22.7287 17.5876C22.6748 18.8116 22.4692 19.4726 22.2978 19.9133C22.0726 20.496 21.7984 20.9171 21.3626 21.3528C20.9219 21.7935 20.5058 22.0628 19.9231 22.288C19.4824 22.4594 18.8165 22.665 17.5974 22.7189C16.2753 22.7776 15.8787 22.7923 12.5346 22.7923C9.18548 22.7923 8.78888 22.7776 7.47177 22.7189C6.2477 22.665 5.58669 22.4594 5.14603 22.288C4.56336 22.0628 4.14228 21.7886 3.70651 21.3528C3.26584 20.9122 2.99654 20.496 2.77131 19.9133C2.59994 19.4726 2.3943 18.8067 2.34044 17.5876C2.28168 16.2656 2.26699 15.869 2.26699 12.5248C2.26699 9.17569 2.28168 8.77909 2.34044 7.46198C2.3943 6.2379 2.59994 5.5769 2.77131 5.13623C2.99654 4.55357 3.27074 4.13249 3.70651 3.69672C4.14718 3.25605 4.56336 2.98675 5.14603 2.76152C5.58669 2.59015 6.25259 2.3845 7.47177 2.33064C8.78888 2.27189 9.18548 2.2572 12.5346 2.2572ZM12.5346 0C9.13163 0 8.70565 0.0146889 7.36895 0.0734447C6.03715 0.1322 5.12154 0.347638 4.32834 0.656106C3.50086 0.979263 2.80069 1.40524 2.10541 2.10541C1.40524 2.80069 0.979263 3.50086 0.656106 4.32345C0.347638 5.12154 0.1322 6.03226 0.0734447 7.36405C0.0146889 8.70564 0 9.13162 0 12.5346C0 15.9375 0.0146889 16.3635 0.0734447 17.7002C0.1322 19.032 0.347638 19.9476 0.656106 20.7408C0.979263 21.5683 1.40524 22.2684 2.10541 22.9637C2.80069 23.659 3.50086 24.0899 4.32345 24.4081C5.12154 24.7166 6.03226 24.932 7.36406 24.9908C8.70075 25.0495 9.12673 25.0642 12.5297 25.0642C15.9326 25.0642 16.3586 25.0495 17.6953 24.9908C19.0271 24.932 19.9427 24.7166 20.7359 24.4081C21.5585 24.0899 22.2586 23.659 22.9539 22.9637C23.6492 22.2684 24.0801 21.5683 24.3983 20.7457C24.7068 19.9476 24.9222 19.0369 24.981 17.7051C25.0397 16.3684 25.0544 15.9424 25.0544 12.5395C25.0544 9.13652 25.0397 8.71054 24.981 7.37385C24.9222 6.04205 24.7068 5.12644 24.3983 4.33324C24.0899 3.50086 23.6639 2.80069 22.9637 2.10541C22.2684 1.41014 21.5683 0.979263 20.7457 0.661002C19.9476 0.352535 19.0369 0.137097 17.7051 0.078341C16.3635 0.0146889 15.9375 0 12.5346 0Z" fill="var(--fill-0, white)"/>
</svg>
