<svg preserveAspectRatio="none" width="100%" height="100%" overflow="visible" style="display: block;" viewBox="0 0 87.8288 33.4707" fill="none" xmlns="http://www.w3.org/2000/svg">
<g id="Group">
<path id="Vector" d="M74.0656 5.67818L69.7949 17.2111L75.412 15.4609L67.6045 31.396L84.8377 8.36363L78.2455 10.3954L80.2962 4.94622L74.0656 5.67818Z" fill="var(--fill-0, white)"/>
<path id="Vector_2" d="M0 31.586L66.243 25.9593L64.8115 28.4463L0 31.586Z" fill="var(--fill-0, white)"/>
<path id="Vector_3" d="M19.0275 33.4707L64.5388 29.6468L63.4794 31.3302L19.0275 33.4707Z" fill="var(--fill-0, white)"/>
<g id="Group_2">
<path id="Vector_4" d="M1.84686 27.8307L9.16924 4.91664L24.9154 3.93274L23.2025 9.26927L14.0467 9.84091L12.6381 14.2556L20.9384 13.7374L19.304 18.7886L11.019 19.3058L8.42188 27.4204L1.84686 27.8307Z" fill="var(--fill-0, white)"/>
<path id="Vector_5" d="M33.8952 21.3614L27.0561 21.7889L24.3728 26.4231L17.5959 26.8468L32.4876 3.4594L40.7573 2.94311L40.5085 25.4153L33.5756 25.8486L33.8961 21.3624L33.8952 21.3614ZM29.7909 16.9649L34.299 16.6834L34.8454 8.82074L34.5191 8.84078L29.7909 16.9639V16.9649Z" fill="var(--fill-0, white)"/>
<path id="Vector_6" d="M49.6165 18.2933C49.5696 19.6656 51.0653 20.5063 52.8681 20.3937C54.8107 20.2725 56.2882 19.3554 56.4298 18.1015C56.5303 17.2082 55.9322 16.7635 54.0222 16.3217L51.5696 15.7586C48.14 14.9618 46.3773 12.7993 46.7381 9.60233C47.2414 5.13517 51.7265 1.63379 57.3542 1.2826C62.9503 0.933321 66.2641 3.7142 65.71 8.07542L59.6785 8.45238C59.8326 7.08866 58.5121 6.06659 56.6001 6.18588C54.9676 6.28799 53.5514 7.21654 53.4203 8.37699C53.3102 9.34848 53.8825 10.0289 55.5839 10.4049L58.0987 10.9641C61.8785 11.802 63.3972 13.5274 63.0297 16.7874C62.4871 21.599 58.0661 24.9411 51.8643 25.3285C46.2835 25.6768 42.8128 23.2013 43.3678 18.6846L49.6165 18.2942V18.2933Z" fill="var(--fill-0, white)"/>
<path id="Vector_7" d="M73.2922 6.13816L67.0588 6.52752L68.7717 1.19099L87.8288 3.08073e-08L86.1159 5.33653L79.8825 5.7259" fill="var(--fill-0, white)"/>
</g>
</g>
</svg>
