<svg preserveAspectRatio="none" width="100%" height="100%" overflow="visible" style="display: block;" viewBox="0 0 201 59" fill="none" xmlns="http://www.w3.org/2000/svg">
<g id="playstore">
<rect width="201" height="59" rx="12" fill="var(--fill-0, white)" fill-opacity="0.1"/>
<rect x="0.5" y="0.5" width="200" height="58" rx="11.5" stroke="var(--stroke-0, white)" stroke-opacity="0.1"/>
<path id="Union" opacity="0.5" d="M67.2832 13.0835C67.8025 13.0835 68.3198 13.2143 68.834 13.4712C69.34 13.7239 69.7362 13.9842 70.002 14.3823L70.0479 14.4507L69.9893 14.5083L69.2832 15.2144L69.2129 15.1265C68.7337 14.5285 68.1378 14.2866 67.2832 14.2866C66.5513 14.2866 65.8314 14.5302 65.3535 15.1265L65.3467 15.1353L65.3379 15.1421C64.7423 15.6182 64.4971 16.3369 64.4971 17.1958C64.4972 18.0545 64.7423 18.7726 65.3379 19.2485C65.9611 19.7464 66.5658 20.104 67.2832 20.104C67.7126 20.104 68.0758 20.0427 68.4062 19.9077C68.7366 19.7728 69.0393 19.5613 69.3457 19.2554C69.685 18.9164 69.9142 18.4729 69.9395 17.9224H67.1836V16.8452H71.0225V17.3208C71.0224 18.3389 70.768 19.2469 70.1152 19.8989C69.3434 20.6697 68.4391 21.0562 67.2832 21.0562C66.1274 21.0561 65.2229 20.6697 64.4512 19.8989C63.6795 19.1281 63.2931 18.2243 63.293 17.0698C63.293 15.9155 63.6797 15.0125 64.4512 14.2417C65.223 13.4708 66.1272 13.0835 67.2832 13.0835ZM101.044 13.0835C102.2 13.0835 103.104 13.4708 103.876 14.2417C104.647 15.0125 105.035 15.9154 105.035 17.0698C105.035 18.0973 104.649 19.1269 103.876 19.8989C103.104 20.6696 102.2 21.0562 101.044 21.0562C99.8881 21.0561 98.9841 20.6696 98.2119 19.8989C97.4405 19.1281 97.0538 18.2243 97.0537 17.0698C97.0538 15.9155 97.4407 15.0125 98.2119 14.2417C98.9842 13.4709 99.888 13.0835 101.044 13.0835ZM76.7969 14.2866H73.4092V16.4683H76.5459V17.5464H73.4092V19.728H76.7969V20.8052H72.2051V13.0835H76.7969V14.2866ZM83.0713 14.1616H80.9385V20.8052H79.7334V14.1616H77.6006V13.0835H83.0713V14.1616ZM87.7148 20.8052H86.5117V13.0835H87.7148V20.8052ZM93.9902 14.1616H91.8574V20.605H91.8818V20.8052H90.7793V14.1616H88.6455V13.0835H93.9902V14.1616ZM107.53 13.1313L110.984 18.7231V13.0835H112.188V20.8052H111.029L111 20.7593L107.294 14.9077V20.8052H106.216V13.0835H107.501L107.53 13.1313ZM101.044 14.1616C100.312 14.1616 99.5922 14.4049 99.1143 15.0015L99.1074 15.0103C98.6225 15.4947 98.2579 16.2216 98.2578 17.0698C98.2579 17.7981 98.5008 18.5244 99.1074 19.1304C99.5943 19.6165 100.323 19.979 101.044 19.979C101.776 19.979 102.497 19.7354 102.975 19.1392L102.981 19.1304L103.157 18.938C103.552 18.4627 103.83 17.8123 103.83 17.0698C103.83 16.211 103.586 15.4931 102.99 15.0171L102.981 15.0103C102.495 14.524 101.766 14.1616 101.044 14.1616Z" fill="var(--fill-0, white)"/>
<path id="Vector" d="M97.9294 32.7259C94.823 32.7259 92.3637 35.0532 92.3637 38.2855C92.3637 41.3885 94.823 43.845 97.9294 43.845C101.036 43.845 103.496 41.5178 103.496 38.2855C103.496 35.0532 101.036 32.7259 97.9294 32.7259ZM97.9294 41.5178C96.2465 41.5178 94.823 40.0956 94.823 38.1563C94.823 36.2168 96.2465 34.7946 97.9294 34.7946C99.6122 34.7946 101.036 36.0875 101.036 38.1563C101.036 40.2249 99.6122 41.5178 97.9294 41.5178ZM85.8908 32.7259C82.7844 32.7259 80.325 35.0532 80.325 38.2855C80.325 41.3885 82.7844 43.845 85.8908 43.845C88.998 43.845 91.4572 41.5178 91.4572 38.2855C91.4572 35.0532 88.998 32.7259 85.8908 32.7259ZM85.8908 41.5178C84.2087 41.5178 82.7844 40.0956 82.7844 38.1563C82.7844 36.2168 84.2087 34.7946 85.8908 34.7946C87.5737 34.7946 88.998 36.0875 88.998 38.1563C88.998 40.2249 87.5737 41.5178 85.8908 41.5178ZM71.5228 34.4067V36.734H77.0889C76.9595 38.027 76.4417 39.0613 75.7945 39.7077C75.0178 40.4834 73.7233 41.3885 71.5228 41.3885C68.0278 41.3885 65.4389 38.6734 65.4389 35.1825C65.4389 31.6917 68.1573 28.9765 71.5228 28.9765C73.335 28.9765 74.7589 29.7522 75.7945 30.6573L77.4773 28.9765C76.0533 27.6836 74.2411 26.6492 71.6523 26.6492C66.9923 26.6492 62.9795 30.528 62.9795 35.1825C62.9795 39.837 66.9923 43.7158 71.6523 43.7158C74.2411 43.7158 76.0533 42.94 77.6067 41.2592C79.16 39.7077 79.6778 37.5097 79.6778 35.829C79.6778 35.3118 79.6778 34.7946 79.5483 34.4067H71.5228ZM130.291 36.2168C129.773 34.9239 128.478 32.7259 125.631 32.7259C122.783 32.7259 120.453 34.9239 120.453 38.2855C120.453 41.3885 122.783 43.845 125.889 43.845C128.349 43.845 129.902 42.2936 130.42 41.3885L128.608 40.0956C127.961 41.0006 127.184 41.6471 125.889 41.6471C124.595 41.6471 123.818 41.13 123.171 39.9663L130.549 36.8633L130.291 36.2168ZM122.783 38.027C122.783 35.9583 124.466 34.7946 125.631 34.7946C126.536 34.7946 127.443 35.3118 127.701 35.9583L122.783 38.027ZM116.699 43.3279H119.158V27.1664H116.699V43.3279ZM112.816 33.8896C112.168 33.2431 111.133 32.5967 109.838 32.5967C107.12 32.5967 104.531 35.0532 104.531 38.1563C104.531 41.2592 106.991 43.5865 109.838 43.5865C111.133 43.5865 112.168 42.94 112.686 42.2936H112.816V43.0693C112.816 45.138 111.651 46.3016 109.838 46.3016C108.414 46.3016 107.379 45.2673 107.12 44.3622L105.049 45.2673C105.696 46.6895 107.249 48.4996 109.968 48.4996C112.816 48.4996 115.146 46.8188 115.146 42.8108V32.9846H112.816V33.8896ZM109.968 41.5178C108.285 41.5178 106.861 40.0956 106.861 38.1563C106.861 36.2168 108.285 34.7946 109.968 34.7946C111.651 34.7946 112.945 36.2168 112.945 38.1563C112.945 40.0956 111.651 41.5178 109.968 41.5178ZM141.552 27.1664H135.727V43.3279H138.186V37.2512H141.552C144.27 37.2512 146.859 35.3118 146.859 32.2088C146.859 29.1058 144.27 27.1664 141.552 27.1664ZM141.681 35.0532H138.186V29.4937H141.681C143.494 29.4937 144.529 31.0452 144.529 32.2088C144.4 33.5017 143.364 35.0532 141.681 35.0532ZM156.568 32.7259C154.755 32.7259 152.943 33.5017 152.296 35.1825L154.496 36.0875C155.014 35.1825 155.791 34.9239 156.697 34.9239C157.991 34.9239 159.156 35.6997 159.286 36.9926V37.1219C158.898 36.8633 157.862 36.4754 156.826 36.4754C154.496 36.4754 152.166 37.7684 152.166 40.0956C152.166 42.2936 154.108 43.7158 156.179 43.7158C157.862 43.7158 158.639 42.94 159.286 42.1643H159.415V43.4572H161.745V37.2512C161.486 34.2775 159.286 32.7259 156.568 32.7259ZM156.309 41.5178C155.532 41.5178 154.367 41.13 154.367 40.0956C154.367 38.8027 155.791 38.4148 156.956 38.4148C157.991 38.4148 158.509 38.6734 159.156 38.932C158.898 40.4835 157.603 41.5178 156.309 41.5178ZM169.9 32.9846L167.182 39.9663H167.053L164.205 32.9846H161.616L165.888 42.8108L163.428 48.241H165.888L172.489 32.9846H169.9ZM148.154 43.3279H150.613V27.1664H148.154V43.3279Z" fill="var(--fill-0, white)"/>
<g id="Group 1">
<path id="path64" d="M19.1309 15.3719C18.7871 15.7233 18.5881 16.2705 18.5881 16.979V42.2535C18.5881 42.9621 18.7871 43.5092 19.1309 43.8607L19.2158 43.9378L33.7219 29.7806V29.4463L19.2158 15.289L19.1309 15.3719Z" fill="url(#paint0_linear_2322_6424)"/>
<path id="path78" d="M38.5528 34.502L33.7228 29.7805V29.4462L38.5586 24.7247L38.6669 24.7862L44.3939 27.9676C46.0282 28.8705 46.0282 30.3562 44.3939 31.2648L38.6669 34.4405L38.5528 34.502V34.502Z" fill="url(#paint1_linear_2322_6424)"/>
<path id="path88" d="M38.6661 34.4405L33.722 29.6133L19.131 43.8605C19.6738 44.4177 20.559 44.4848 21.5657 43.9277L38.6661 34.4405" fill="url(#paint2_linear_2322_6424)"/>
<path id="path104" d="M38.6661 24.7861L21.5657 15.2989C20.559 14.7475 19.6738 14.8146 19.131 15.3718L33.722 29.6133L38.6661 24.7861Z" fill="url(#paint3_linear_2322_6424)"/>
</g>
</g>
<defs>
<linearGradient id="paint0_linear_2322_6424" x1="32.434" y1="42.5167" x2="13.2595" y2="22.8776" gradientUnits="userSpaceOnUse">
<stop stop-color="#00A0FF"/>
<stop offset="0.0066" stop-color="#00A1FF"/>
<stop offset="0.2601" stop-color="#00BEFF"/>
<stop offset="0.5122" stop-color="#00D2FF"/>
<stop offset="0.7604" stop-color="#00DFFF"/>
<stop offset="1" stop-color="#00E3FF"/>
</linearGradient>
<linearGradient id="paint1_linear_2322_6424" x1="46.5221" y1="29.6117" x2="18.1982" y2="29.6117" gradientUnits="userSpaceOnUse">
<stop stop-color="#FFE000"/>
<stop offset="0.4087" stop-color="#FFBD00"/>
<stop offset="0.7754" stop-color="#FFA500"/>
<stop offset="1" stop-color="#FF9C00"/>
</linearGradient>
<linearGradient id="paint2_linear_2322_6424" x1="35.9776" y1="26.9892" x2="9.97543" y2="0.356889" gradientUnits="userSpaceOnUse">
<stop stop-color="#FF3A44"/>
<stop offset="1" stop-color="#C31162"/>
</linearGradient>
<linearGradient id="paint3_linear_2322_6424" x1="15.4581" y1="52.2692" x2="27.0693" y2="40.3768" gradientUnits="userSpaceOnUse">
<stop stop-color="#32A071"/>
<stop offset="0.0685" stop-color="#2DA771"/>
<stop offset="0.4762" stop-color="#15CF74"/>
<stop offset="0.8009" stop-color="#06E775"/>
<stop offset="1" stop-color="#00F076"/>
</linearGradient>
</defs>
</svg>
