<svg preserveAspectRatio="none" width="100%" height="100%" overflow="visible" style="display: block;" viewBox="0 0 16.5547 16.5547" fill="none" xmlns="http://www.w3.org/2000/svg">
<g id="Frame">
<path id="Vector" d="M14.485 8.27731C14.0711 8.27731 13.7952 8.55322 13.7952 8.96708V13.1057C13.7952 13.5196 13.5193 13.7955 13.1054 13.7955H3.44855C3.03468 13.7955 2.75877 13.5196 2.75877 13.1057V8.96708C2.75877 8.55322 2.48286 8.27731 2.069 8.27731C1.65513 8.27731 1.37922 8.55322 1.37922 8.96708V13.1057C1.37922 14.2784 2.27593 15.1751 3.44855 15.1751H13.1054C14.2781 15.1751 15.1748 14.2784 15.1748 13.1057V8.96708C15.1748 8.55322 14.8989 8.27731 14.485 8.27731ZM6.00073 5.31126L7.58722 3.72477V10.3466C7.58722 10.7605 7.86313 11.0364 8.27699 11.0364C8.69086 11.0364 8.96677 10.7605 8.96677 10.3466V3.72477L10.5533 5.31126C10.8292 5.58717 11.243 5.58717 11.519 5.31126C11.7949 5.03535 11.7949 4.62148 11.519 4.34557L8.75984 1.58646C8.69086 1.51749 8.62188 1.44851 8.55291 1.44851C8.41495 1.37953 8.20802 1.37953 8.00108 1.44851C7.93211 1.44851 7.86313 1.51749 7.79415 1.58646L5.03504 4.34557C4.75913 4.62148 4.75913 5.03535 5.03504 5.31126C5.31095 5.58717 5.72482 5.58717 6.00073 5.31126Z" fill="var(--fill-0, white)"/>
</g>
</svg>
