<svg overflow="visible" style="display: block;" viewBox="0 0 201 59" fill="none" xmlns="http://www.w3.org/2000/svg">
<g id="2">
<rect width="201" height="59" rx="12" fill="var(--fill-0, white)" fill-opacity="0.1"/>
<rect x="0.5" y="0.5" width="200" height="58" rx="11.5" stroke="var(--stroke-0, white)" stroke-opacity="0.1"/>
<path id="Vector" d="M42.4126 30.4056C42.3824 26.7981 45.371 25.0397 45.5101 24.9611C43.8162 22.4957 41.1906 22.1573 40.265 22.1331C38.0568 21.9035 35.9212 23.4505 34.796 23.4505C33.6526 23.4505 31.9223 22.1573 30.0529 22.1936C27.6511 22.2298 25.4067 23.6197 24.1786 25.7709C21.6376 30.1639 23.5313 36.6175 25.9693 40.1706C27.1853 41.9109 28.607 43.8506 30.4704 43.7841C32.2913 43.7116 32.975 42.6239 35.1711 42.6239C37.349 42.6239 37.9902 43.7841 39.8899 43.7418C41.844 43.7116 43.0782 41.9954 44.2518 40.2431C45.6614 38.249 46.2241 36.2851 46.2483 36.1884C46.1999 36.1582 42.449 34.7261 42.4126 30.4056ZM38.8251 19.7946C39.8052 18.5679 40.4767 16.9062 40.2892 15.2142C38.8735 15.2746 37.0949 16.1931 36.0785 17.3896C35.1771 18.4471 34.3664 20.1753 34.5782 21.8008C36.1632 21.9156 37.8027 20.9971 38.8251 19.7946Z" fill="var(--fill-0, white)"/>
<path id="Vector_2" d="M79.3206 43.7899H76.3787L74.7645 38.7365H69.1671L67.6297 43.7899H64.7646L70.3131 26.5777H73.7372L79.3206 43.7899ZM74.2823 36.6147L72.8218 32.1197C72.6681 31.659 72.3745 30.5772 71.9553 28.8741H71.9064C71.7387 29.607 71.4591 30.6889 71.0887 32.1197L69.6563 36.6147H74.2823ZM93.5625 37.4313C93.5625 39.5393 92.9891 41.2074 91.8432 42.4359C90.8155 43.5247 89.537 44.0691 88.0135 44.0691C86.3643 44.0691 85.1837 43.4828 84.4641 42.3102V48.8224H81.7036V35.456C81.7036 34.1299 81.6689 32.7688 81.5989 31.3798H84.0302L84.1846 33.3482H84.2328C85.1558 31.8685 86.5534 31.1216 88.4256 31.1216C89.8933 31.1216 91.1161 31.701 92.0948 32.8596C93.0728 34.0182 93.5625 35.5468 93.5625 37.4313ZM90.753 37.536C90.753 36.3285 90.4802 35.3304 89.9355 34.5487C89.3411 33.7321 88.5379 33.3272 87.5313 33.3272C86.854 33.3272 86.2317 33.5575 85.6794 34.0042C85.1279 34.458 84.764 35.0513 84.5967 35.7771C84.5199 36.0494 84.4777 36.3355 84.4709 36.6147V38.6877C84.4709 39.5881 84.7504 40.3488 85.3027 40.9771C85.8542 41.5983 86.5745 41.9123 87.4613 41.9123C88.5025 41.9123 89.3132 41.5075 89.8933 40.7119C90.4591 39.9022 90.753 38.8482 90.753 37.536ZM107.859 37.4313C107.859 39.5393 107.287 41.2074 106.14 42.4359C105.113 43.5247 103.835 44.0691 102.311 44.0691C100.662 44.0691 99.4807 43.4828 98.7611 42.3102V48.8224H96.0006V35.456C96.0006 34.1299 95.9659 32.7688 95.8959 31.3798H98.3279L98.4816 33.3482H98.5306C99.4528 31.8685 100.85 31.1216 102.723 31.1216C104.191 31.1216 105.414 31.701 106.392 32.8596C107.364 34.0182 107.859 35.5468 107.859 37.4313ZM105.043 37.536C105.043 36.3285 104.771 35.3304 104.226 34.5487C103.632 33.7321 102.828 33.3272 101.822 33.3272C101.144 33.3272 100.522 33.5575 99.9628 34.0042C99.4113 34.458 99.0474 35.0513 98.8802 35.7771C98.7958 36.1191 98.7476 36.3983 98.7476 36.6147V38.6877C98.7476 39.5881 99.0271 40.3488 99.5786 40.9771C100.131 41.5983 100.85 41.9123 101.745 41.9123C102.786 41.9123 103.597 41.5075 104.177 40.7119C104.757 39.9022 105.043 38.8482 105.043 37.536ZM123.841 38.9669C123.841 40.4327 123.331 41.6262 122.311 42.5405C121.193 43.5456 119.62 44.0482 117.615 44.0482C115.763 44.0482 114.275 43.6922 113.149 42.9732L113.785 40.6769C114.994 41.3958 116.329 41.7518 117.775 41.7518C118.817 41.7518 119.627 41.5145 120.207 41.0468C120.787 40.5792 121.081 39.951 121.081 39.1693C121.081 38.4713 120.836 37.885 120.361 37.4034C119.886 36.9288 119.096 36.4821 117.986 36.0773C114.967 34.9535 113.457 33.3063 113.457 31.1496C113.457 29.7396 113.988 28.581 115.057 27.6806C116.119 26.7802 117.531 26.3265 119.292 26.3265C120.858 26.3265 122.164 26.5987 123.205 27.1431L122.514 29.3907C121.535 28.8602 120.438 28.6019 119.201 28.6019C118.23 28.6019 117.461 28.8392 116.916 29.3138C116.455 29.7396 116.224 30.2562 116.224 30.8704C116.224 31.5474 116.49 32.1127 117.021 32.5524C117.482 32.9573 118.313 33.404 119.522 33.8786C121.004 34.4789 122.094 35.1699 122.793 35.9726C123.492 36.7752 123.841 37.7733 123.841 38.9669ZM132.995 33.4529H129.948V39.4764C129.948 41.012 130.486 41.7727 131.563 41.7727C132.059 41.7727 132.464 41.7309 132.793 41.6471L132.869 43.7411C132.325 43.9435 131.612 44.0482 130.724 44.0482C129.634 44.0482 128.781 43.7131 128.167 43.0501C127.552 42.3869 127.244 41.2702 127.244 39.7068V33.4529H125.435V31.3868H127.244V29.1115L129.956 28.2948V31.3868H133.002L132.995 33.4529ZM146.699 37.4872C146.699 39.3927 146.154 40.9631 145.064 42.1846C143.924 43.4479 142.409 44.0761 140.514 44.0761C138.69 44.0761 137.237 43.4689 136.154 42.2683C135.071 41.0608 134.533 39.5323 134.533 37.6966C134.533 35.7702 135.092 34.1997 136.21 32.9712C137.328 31.7428 138.831 31.1356 140.724 31.1356C142.548 31.1356 144.016 31.7428 145.119 32.9503C146.167 34.1159 146.699 35.6306 146.699 37.4872ZM143.834 37.55C143.834 36.4123 143.589 35.4351 143.093 34.6255C142.513 33.6413 141.688 33.1458 140.612 33.1458C139.508 33.1458 138.656 33.6413 138.082 34.6255C137.587 35.4421 137.342 36.4332 137.342 37.6058C137.342 38.7435 137.587 39.7207 138.082 40.5373C138.677 41.5214 139.515 42.0171 140.591 42.0171C141.647 42.0171 142.471 41.5145 143.072 40.5164C143.582 39.6718 143.834 38.6877 143.834 37.55ZM155.679 33.8088C155.392 33.76 155.098 33.7321 154.805 33.7321C153.833 33.7321 153.086 34.095 152.555 34.8279C152.094 35.477 151.863 36.2936 151.863 37.2778V43.7899H149.103V35.2885C149.103 33.9833 149.082 32.685 149.026 31.3798H151.43L151.527 33.753H151.604C151.898 32.9363 152.352 32.2803 152.988 31.7847C153.561 31.3519 154.267 31.1216 154.986 31.1216C155.245 31.1216 155.468 31.1426 155.679 31.1705V33.8088ZM168.026 36.9986C168.033 37.4174 167.998 37.8362 167.929 38.248H159.641C159.669 39.4764 160.074 40.4117 160.843 41.0608C161.541 41.6401 162.443 41.9263 163.554 41.9263C164.784 41.9263 165.902 41.7309 166.908 41.34L167.342 43.2524C166.167 43.762 164.777 44.0202 163.177 44.0202C161.248 44.0202 159.738 43.4549 158.634 42.3242C157.537 41.1934 156.985 39.6718 156.985 37.7663C156.985 35.8958 157.495 34.3393 158.523 33.0969C159.592 31.7707 161.045 31.1076 162.869 31.1076C164.658 31.1076 166.013 31.7707 166.936 33.0969C167.656 34.1508 168.026 35.449 168.026 36.9986ZM165.392 36.2866C165.413 35.47 165.231 34.7651 164.854 34.1648C164.378 33.397 163.638 33.0132 162.652 33.0132C161.751 33.0132 161.017 33.39 160.451 34.1368C159.99 34.7301 159.718 35.449 159.633 36.2797L165.392 36.2866Z" fill="var(--fill-0, white)"/>
<path id="Vector_3" opacity="0.5" d="M68.4717 21.43C67.7198 21.43 67.0704 21.3959 66.5303 21.3344V13.1885C67.2891 13.0724 68.0548 13.0109 68.8204 13.0177C71.9172 13.0177 73.346 14.5404 73.346 17.019C73.3391 19.88 71.6574 21.43 68.4717 21.43ZM68.9298 14.0625C68.5128 14.0625 68.1573 14.0898 67.8634 14.1512V20.3375C68.0206 20.3648 68.3282 20.3716 68.7589 20.3716C70.7892 20.3716 71.9445 19.2177 71.9445 17.06C71.9377 15.1277 70.8918 14.0625 68.9298 14.0625ZM77.7894 21.4914C76.0462 21.4914 74.9114 20.1873 74.9114 18.4188C74.9114 16.5752 76.0667 15.2642 77.8852 15.2642C79.6078 15.2642 80.7634 16.5069 80.7634 18.3232C80.7634 20.1873 79.5737 21.4914 77.7894 21.4914ZM77.8373 16.2338C76.8802 16.2338 76.265 17.1282 76.265 18.3846C76.265 19.6137 76.8939 20.5082 77.8236 20.5082C78.7602 20.5082 79.3823 19.5522 79.3823 18.3573C79.3891 17.1419 78.7738 16.2338 77.8373 16.2338ZM90.7165 15.3871L88.8503 21.3549H87.6335L86.861 18.767C86.6694 18.132 86.5058 17.4902 86.3827 16.8415H86.3554C86.2596 17.4902 86.0746 18.1457 85.8763 18.767L85.056 21.3549H83.8258L82.0687 15.3871H83.4359L84.1125 18.2208C84.2703 18.8967 84.4066 19.5318 84.5165 20.1395H84.5437C84.6395 19.6342 84.8032 19.0128 85.0361 18.2344L85.8837 15.3871H86.9635L87.7772 18.173C87.9754 18.8489 88.1324 19.5113 88.2555 20.1395H88.2894C88.3786 19.5249 88.5083 18.8763 88.6933 18.173L89.4179 15.3871H90.7165ZM97.6006 21.3549H96.2747V17.9272C96.2747 16.8688 95.8708 16.343 95.0711 16.343C94.2854 16.343 93.7451 17.019 93.7451 17.8042V21.3549H92.4191V17.0941C92.4191 16.5684 92.4051 16.0017 92.3712 15.3871H93.5402L93.6014 16.3089H93.6353C93.9913 15.6739 94.7158 15.2642 95.5295 15.2642C96.7803 15.2642 97.6073 16.2202 97.6073 17.7838L97.6006 21.3549ZM101.258 21.3549H99.9319V12.649H101.258V21.3549ZM106.105 21.4914C104.362 21.4914 103.227 20.1873 103.227 18.4188C103.227 16.5752 104.382 15.2642 106.201 15.2642C107.923 15.2642 109.079 16.5069 109.079 18.3232C109.079 20.1873 107.883 21.4914 106.105 21.4914ZM106.153 16.2338C105.195 16.2338 104.581 17.1282 104.581 18.3846C104.581 19.6137 105.209 20.5082 106.139 20.5082C107.075 20.5082 107.698 19.5522 107.698 18.3573C107.698 17.1419 107.089 16.2338 106.153 16.2338ZM114.315 21.3549L114.219 20.6652H114.185C113.782 21.2183 113.187 21.4846 112.435 21.4846C111.361 21.4846 110.603 20.7335 110.603 19.7298C110.603 18.2549 111.881 17.497 114.096 17.497V17.3878C114.096 16.6025 113.679 16.2065 112.859 16.2065C112.271 16.2065 111.751 16.3567 111.3 16.6503L111.033 15.7763C111.588 15.4349 112.278 15.2574 113.085 15.2574C114.643 15.2574 115.436 16.0768 115.436 17.7223V19.921C115.436 20.5219 115.463 20.9929 115.525 21.348L114.315 21.3549ZM114.131 18.3846C112.653 18.3846 111.916 18.7397 111.916 19.5864C111.916 20.2146 112.298 20.5219 112.824 20.5219C113.502 20.5219 114.131 20.0097 114.131 19.3064V18.3846ZM121.869 21.3549L121.808 20.3989H121.773C121.391 21.1227 120.748 21.4914 119.852 21.4914C118.41 21.4914 117.343 20.2283 117.343 18.4461C117.343 16.582 118.451 15.2642 119.961 15.2642C120.762 15.2642 121.329 15.5305 121.643 16.0768H121.671V12.649H122.997V19.7434C122.997 20.317 123.011 20.8632 123.044 21.348H121.869V21.3549ZM121.677 17.8452C121.677 17.0122 121.124 16.2953 120.276 16.2953C119.291 16.2953 118.69 17.1693 118.69 18.3915C118.69 19.5932 119.312 20.4195 120.249 20.4195C121.082 20.4195 121.677 19.6956 121.677 18.8353V17.8452ZM131.433 21.4914C129.69 21.4914 128.555 20.1873 128.555 18.4188C128.555 16.5752 129.71 15.2642 131.529 15.2642C133.251 15.2642 134.406 16.5069 134.406 18.3232C134.406 20.1873 133.217 21.4914 131.433 21.4914ZM131.481 16.2338C130.523 16.2338 129.908 17.1282 129.908 18.3846C129.908 19.6137 130.537 20.5082 131.467 20.5082C132.404 20.5082 133.026 19.5522 133.026 18.3573C133.032 17.1419 132.417 16.2338 131.481 16.2338ZM141.55 21.3549H140.224V17.9272C140.224 16.8688 139.821 16.343 139.021 16.343C138.234 16.343 137.695 17.019 137.695 17.8042V21.3549H136.368V17.0941C136.368 16.5684 136.355 16.0017 136.32 15.3871H137.489L137.551 16.3089H137.585C137.941 15.6739 138.666 15.2642 139.479 15.2642C140.73 15.2642 141.557 16.2202 141.557 17.7838V21.3549H141.55ZM150.478 16.384H149.015V19.2791C149.015 20.0165 149.268 20.3853 149.788 20.3853C150.02 20.3853 150.218 20.358 150.376 20.3238L150.41 21.3275C150.15 21.4232 149.808 21.4778 149.378 21.4778C148.331 21.4778 147.703 20.9042 147.703 19.3883V16.3772H146.828V15.3802H147.703V14.2877L149.009 13.8917V15.3802H150.472L150.478 16.384ZM157.513 21.3549H156.186V17.9545C156.186 16.8893 155.783 16.3499 154.983 16.3499C154.293 16.3499 153.657 16.8142 153.657 17.7633V21.3617H152.331V12.649H153.657V16.2338H153.685C154.102 15.5851 154.71 15.2642 155.482 15.2642C156.747 15.2642 157.519 16.2474 157.519 17.8042L157.513 21.3549ZM164.711 18.6919H160.726C160.753 19.8186 161.498 20.4604 162.606 20.4604C163.193 20.4604 163.74 20.3648 164.219 20.1804L164.424 21.1022C163.857 21.348 163.193 21.4709 162.421 21.4709C160.555 21.4709 159.448 20.2897 159.448 18.4666C159.448 16.6366 160.582 15.2642 162.27 15.2642C163.795 15.2642 164.752 16.3908 164.752 18.0979C164.765 18.2891 164.752 18.4939 164.711 18.6919ZM163.494 17.7428C163.494 16.821 163.03 16.1723 162.182 16.1723C161.416 16.1723 160.815 16.8347 160.732 17.7428H163.494Z" fill="var(--fill-0, white)"/>
</g>
</svg>
