<svg preserveAspectRatio="none" width="100%" height="100%" overflow="visible" style="display: block;" viewBox="0 0 20.6919 20.6943" fill="none" xmlns="http://www.w3.org/2000/svg">
<g id="Group 162195">
<path id="Vector" opacity="0.3" d="M16.7902 4.38057H7.18786C5.4171 4.38057 3.98035 5.81733 3.98035 7.5852V17.4899C3.98035 17.7001 4.00338 17.9103 4.04081 18.1089C3.32099 17.6943 2.75953 16.9975 2.53783 16.128L0.0990857 6.52851C-0.335685 4.81246 0.700854 3.07338 2.41402 2.63285L12.3965 0.0990899C14.1125 -0.33568 15.8545 0.700858 16.2921 2.4169L16.7902 4.38057Z" fill="var(--fill-0, white)"/>
<path id="Vector_2" d="M17.4872 4.38032H7.18805C5.4173 4.38032 3.98342 5.81708 3.98342 7.58495V17.4896C3.98342 19.2575 5.42018 20.6943 7.18805 20.6943H17.4872C19.2551 20.6943 20.6918 19.2575 20.6918 17.4896V7.58495C20.6918 5.8142 19.2551 4.38032 17.4872 4.38032ZM14.9419 13.1333L11.173 15.3072C10.7123 15.5721 10.1364 15.2409 10.1364 14.7083V10.3577C10.1364 9.82502 10.7123 9.49391 11.173 9.7588L14.9419 11.9327C15.4026 12.1975 15.4026 12.8627 14.9419 13.1304V13.1333Z" fill="var(--fill-0, white)"/>
</g>
</svg>
