<svg preserveAspectRatio="none" width="100%" height="100%" overflow="visible" style="display: block;" viewBox="0 0 24.832 24.832" fill="none" xmlns="http://www.w3.org/2000/svg">
<g id="Layer_1">
<path id="Vector" d="M3.8916 4.94934C3.88503 4.13249 4.5565 3.45638 5.38086 3.45618H19.4531C20.2763 3.45641 20.9531 4.13294 20.9531 4.95618V19.8654C20.9531 20.9525 19.832 21.6775 18.8496 21.2374L18.8477 21.2365L13.6641 18.9288L13.6602 18.9269L13.5107 18.8663C12.7596 18.5828 11.9236 18.6028 11.1846 18.9269L11.1807 18.9288L5.99707 21.2365L5.99512 21.2374C5.0126 21.6779 3.8916 20.9526 3.8916 19.8654V4.94934Z" stroke="var(--stroke-0, white)" stroke-width="1.552"/>
<path id="Vector_2" d="M12.272 7.39789C12.0857 7.39789 11.9202 7.47032 11.7753 7.60482C11.6408 7.74968 11.5787 7.91522 11.5787 8.10146V10.088C11.5787 10.1604 11.5373 10.2018 11.4649 10.2018H9.43697C9.25073 10.2018 9.08518 10.2743 8.94033 10.4088C8.79548 10.5536 8.7334 10.7192 8.7334 10.9054V11.0813C8.7334 11.2675 8.80582 11.4331 8.94033 11.5779C9.08518 11.7228 9.25073 11.7849 9.43697 11.7849H11.4649C11.5373 11.7849 11.5787 11.8263 11.5787 11.8987V13.8852C11.5787 14.0715 11.6408 14.237 11.7753 14.3819C11.9202 14.5267 12.0857 14.5888 12.272 14.5888H12.572C12.7583 14.5888 12.9238 14.5164 13.0583 14.3819C13.2032 14.237 13.2652 14.0715 13.2652 13.8852V11.8987C13.2652 11.8263 13.3066 11.7849 13.3791 11.7849H15.407C15.5932 11.7849 15.7588 11.7124 15.9036 11.5779C16.0485 11.4331 16.1106 11.2675 16.1106 11.0813V10.9054C16.1106 10.7192 16.0381 10.5536 15.9036 10.4088C15.7588 10.2639 15.5932 10.2018 15.407 10.2018H13.3791C13.3066 10.2018 13.2652 10.1604 13.2652 10.088V8.10146C13.2652 7.91522 13.1928 7.74968 13.0583 7.60482C12.9238 7.45997 12.7686 7.39789 12.572 7.39789H12.272Z" fill="var(--fill-0, white)"/>
</g>
</svg>
