<svg preserveAspectRatio="none" width="100%" height="100%" overflow="visible" style="display: block;" viewBox="0 0 23.9182 24.1911" fill="none" xmlns="http://www.w3.org/2000/svg">
<g id="Group">
<path id="Vector" d="M4.88188 2.35535L22.0539 10.6235L3.02832 23.3913L4.88188 2.35535Z" fill="var(--fill-0, white)"/>
<path id="Vector_2" d="M4.65289 22.0696L6.06435 20.9092C6.00885 20.6486 5.97153 20.3662 5.95526 20.0617L5.5122 12.0798L5.15623 5.67446L5.06915 4.09793C4.9658 2.22843 5.68254 0.789318 6.89017 0.0506774C6.57439 0.106982 6.27009 0.209094 5.98205 0.357013C5.98205 0.357013 5.98014 0.357013 5.97918 0.357967C5.95048 0.372282 5.92177 0.388505 5.89402 0.403774C5.88349 0.4095 5.87201 0.41618 5.86148 0.421906C5.83756 0.435267 5.81268 0.449581 5.78876 0.463896C5.77249 0.473439 5.75526 0.483937 5.739 0.494434C5.71986 0.506841 5.69976 0.518292 5.68062 0.530698C5.64522 0.553602 5.60981 0.57746 5.5744 0.602272C5.56484 0.608952 5.55527 0.616587 5.5457 0.623267C5.51699 0.644262 5.48732 0.665257 5.45862 0.687206C5.45 0.693886 5.44139 0.700566 5.43278 0.707247C5.40024 0.732059 5.36771 0.757825 5.33613 0.784546C5.3323 0.787409 5.32848 0.790272 5.3256 0.79409C4.54954 1.44589 3.95433 2.47846 3.6663 3.82977L3.2376 5.8386L1.9046 12.0922L0.143863 20.3557C-0.126946 21.6268 -0.00541715 22.6164 0.424242 23.272C1.4759 23.796 3.00028 23.4286 4.6548 22.0677L4.65289 22.0696Z" fill="var(--fill-0, #009CDB)"/>
<path id="Vector_3" d="M22.2922 8.99548L15.9966 4.86425L9.70096 0.733014C8.7402 0.102211 7.76701 -0.106785 6.88377 0.0497229C5.67614 0.788364 4.95844 2.22747 5.06275 4.09698L5.15078 5.67351C5.42446 5.70786 5.7058 5.76512 5.99383 5.84624L13.5411 7.98486L19.5975 9.70072L21.0883 10.1235C22.852 10.6235 23.6673 11.6943 23.517 12.9673C23.517 12.9721 23.517 12.9769 23.5161 12.9817C24.3103 11.5864 23.9409 10.0796 22.2922 8.99644V8.99548Z" fill="var(--fill-0, #FF6D2D)"/>
<path id="Vector_4" d="M4.86679 23.4581L6.78733 22.4733L6.82274 22.4552L12.9097 19.3336L20.9661 15.2024C22.2024 14.5677 23.0627 13.7881 23.522 12.9693C23.6732 11.6962 22.8579 10.6255 21.0933 10.1254L19.6025 9.70263C19.3824 9.93071 19.1355 10.1578 18.8618 10.3831L11.7576 16.2263L6.0639 20.9092L4.65243 22.0696C2.99791 23.4305 1.47353 23.7979 0.421875 23.274C1.15009 24.3848 2.76634 24.5346 4.86583 23.4581H4.86679Z" fill="var(--fill-0, #6CC72B)"/>
</g>
</svg>
