<svg preserveAspectRatio="none" width="100%" height="100%" overflow="visible" style="display: block;" viewBox="0 0 182 182" fill="none" xmlns="http://www.w3.org/2000/svg">
<g id="QR_code_for_mobile_English_Wikipedia 1">
<rect x="0.5" y="0.5" width="181" height="181" rx="15.5" stroke="var(--stroke-0, white)"/>
<path id="Vector" d="M19.6757 145.108V127.892H54.1081V162.324H19.6757V145.108ZM49.1892 145.108V132.811H24.5946V157.405H49.1892V145.108ZM29.5135 145.108V137.73H44.2703V152.487H29.5135V145.108ZM63.9459 159.865V157.405H59.027V147.568H63.9459V132.811H68.8649V127.892H59.027V122.973H39.3514V118.054H44.2703V113.135H34.4324V122.973H29.5135V118.054H19.6757V113.135H29.5135V103.297H24.5946V108.216H19.6757V98.3784H29.5135V103.297H34.4324V108.216H39.3514V103.297H44.2703V108.216H54.1081V103.297H49.1892V98.3784H34.4324V93.4595H49.1892V88.5406H34.4324V83.6216H29.5135V88.5406H19.6757V73.7838H24.5946V78.7027H54.1081V73.7838H49.1892V68.8649H39.3514V73.7838H34.4324V68.8649H24.5946V59.027H34.4324V68.8649H39.3514V63.946H49.1892V59.027H54.1081V63.946H49.1892V68.8649H54.1081V73.7838H59.027V63.946H63.9459V59.027H59.027V44.2703H68.8649V49.1892H73.7838V54.1081H68.8649V59.027H73.7838V88.5406H63.9459V83.6216H59.027V88.5406H54.1081V93.4595H49.1892V98.3784H54.1081V103.297H59.027V108.216H68.8649V103.297H63.9459V98.3784H59.027V93.4595H68.8649V103.297H73.7838V93.4595H78.7027V103.297H83.6216V88.5406H88.5405V83.6216H93.4595V88.5406H88.5405V93.4595H93.4595V98.3784H108.216V93.4595H103.297V88.5406H98.3784V78.7027H93.4595V73.7838H98.3784V68.8649H103.297V63.946H98.3784V59.027H93.4595V68.8649H88.5405V63.946H83.6216V68.8649H78.7027V63.946H83.6216V59.027H78.7027V44.2703H73.7838V39.3514H78.7027V44.2703H83.6216V24.5946H88.5405V34.4324H98.3784V29.5135H93.4595V19.6757H103.297V24.5946H98.3784V29.5135H108.216V24.5946H113.135V19.6757H122.973V34.4324H113.135V29.5135H108.216V39.3514H113.135V54.1081H118.054V49.1892H122.973V73.7838H132.811V68.8649H127.892V59.027H137.73V73.7838H147.568V68.8649H142.649V59.027H147.568V68.8649H152.486V63.946H162.324V73.7838H157.405V68.8649H152.486V73.7838H147.568V88.5406H152.486V93.4595H147.568V98.3784H137.73V103.297H132.811V108.216H122.973V103.297H118.054V98.3784H113.135V108.216H118.054V113.135H132.811V118.054H142.649V113.135H137.73V108.216H142.649V103.297H147.568V108.216H152.486V113.135H157.405V103.297H152.486V98.3784H162.324V113.135H157.405V122.973H162.324V132.811H157.405V147.568H162.324V152.487H147.568V162.324H132.811V157.405H142.649V152.487H132.811V142.649H127.892V152.487H122.973V157.405H127.892V162.324H118.054V147.568H113.135V157.405H108.216V152.487H103.297V132.811H108.216V147.568H113.135V132.811H118.054V122.973H113.135V118.054H108.216V113.135H113.135V108.216H108.216V103.297H103.297V122.973H108.216V127.892H98.3784V137.73H93.4595V147.568H98.3784V152.487H93.4595V157.405H103.297V162.324H93.4595V157.405H88.5405V152.487H83.6216V162.324H63.9459V159.865ZM78.7027 152.487V147.568H83.6216V132.811H73.7838V137.73H78.7027V142.649H68.8649V147.568H63.9459V152.487H68.8649V157.405H78.7027V152.487ZM147.568 147.568V142.649H152.486V132.811H157.405V127.892H152.486V113.135H147.568V127.892H152.486V132.811H147.568V137.73H142.649V152.487H147.568V147.568ZM122.973 145.108V142.649H118.054V147.568H122.973V145.108ZM93.4595 135.27V132.811H88.5405V137.73H93.4595V135.27ZM137.73 130.351V122.973H122.973V137.73H137.73V130.351ZM127.892 130.351V127.892H132.811V132.811H127.892V130.351ZM88.5405 125.432V122.973H98.3784V118.054H88.5405V113.135H83.6216V118.054H88.5405V122.973H78.7027V118.054H73.7838V122.973H68.8649V118.054H63.9459V113.135H59.027V108.216H54.1081V113.135H49.1892V118.054H54.1081V113.135H59.027V118.054H63.9459V122.973H68.8649V127.892H88.5405V125.432ZM73.7838 110.676V108.216H68.8649V113.135H73.7838V110.676ZM98.3784 108.216V103.297H88.5405V108.216H93.4595V113.135H98.3784V108.216ZM127.892 100.838V98.3784H122.973V103.297H127.892V100.838ZM137.73 95.9189V93.4595H142.649V78.7027H137.73V83.6216H132.811V88.5406H127.892V83.6216H118.054V78.7027H113.135V73.7838H118.054V59.027H113.135V54.1081H108.216V49.1892H103.297V54.1081H98.3784V39.3514H103.297V44.2703H108.216V39.3514H103.297V34.4324H98.3784V39.3514H93.4595V54.1081H98.3784V59.027H103.297V54.1081H108.216V68.8649H103.297V73.7838H98.3784V78.7027H103.297V88.5406H108.216V83.6216H118.054V88.5406H122.973V93.4595H132.811V98.3784H137.73V95.9189ZM132.811 91V88.5406H137.73V93.4595H132.811V91ZM54.1081 86.0811V83.6216H59.027V78.7027H54.1081V83.6216H49.1892V88.5406H54.1081V86.0811ZM68.8649 76.2433V73.7838H63.9459V78.7027H68.8649V76.2433ZM68.8649 51.6487V49.1892H63.9459V54.1081H68.8649V51.6487ZM88.5405 49.1892V44.2703H83.6216V54.1081H88.5405V49.1892ZM118.054 27.0541V24.5946H113.135V29.5135H118.054V27.0541ZM157.405 159.865V157.405H162.324V162.324H157.405V159.865ZM157.405 88.5406V83.6216H152.486V78.7027H157.405V83.6216H162.324V93.4595H157.405V88.5406ZM19.6757 36.8919V19.6757H54.1081V54.1081H19.6757V36.8919ZM49.1892 36.8919V24.5946H24.5946V49.1892H49.1892V36.8919ZM29.5135 36.8919V29.5135H44.2703V44.2703H29.5135V36.8919ZM127.892 36.8919V19.6757H162.324V54.1081H127.892V36.8919ZM157.405 36.8919V24.5946H132.811V49.1892H157.405V36.8919ZM137.73 36.8919V29.5135H152.486V44.2703H137.73V36.8919ZM59.027 36.8919V34.4324H63.9459V39.3514H59.027V36.8919ZM68.8649 31.973V29.5135H63.9459V19.6757H68.8649V24.5946H73.7838V19.6757H78.7027V24.5946H73.7838V34.4324H68.8649V31.973Z" fill="#000000"/>
</g>
</svg>
