<svg preserveAspectRatio="none" width="100%" height="100%" overflow="visible" style="display: block;" viewBox="0 0 16.6546 16.5099" fill="none" xmlns="http://www.w3.org/2000/svg">
<g id="Layer 53">
<path id="Path 47077" d="M16.4617 11.2205L14.1854 9.90644L16.4617 8.58931C16.5194 8.55573 16.5674 8.50757 16.6007 8.44965C16.634 8.39173 16.6516 8.32607 16.6516 8.25925C16.6516 8.19243 16.634 8.12678 16.6007 8.06886C16.5674 8.01094 16.5194 7.96278 16.4617 7.92919L14.1854 6.61206L16.4493 5.30321C16.5135 5.27012 16.5667 5.21908 16.6024 5.15629C16.6277 5.11295 16.6442 5.06506 16.651 5.01533C16.6578 4.96561 16.6547 4.91504 16.6419 4.86651C16.6291 4.81798 16.6069 4.77244 16.5765 4.73251C16.5461 4.69258 16.5082 4.65903 16.4648 4.63378L8.51958 0.050209C8.46134 0.017296 8.39558 0 8.32868 0C8.26179 0 8.19603 0.017296 8.13779 0.050209L0.192585 4.63482C0.134088 4.66819 0.0854612 4.71645 0.0516383 4.77469C0.0178154 4.83293 0 4.89908 0 4.96643C0 5.03378 0.0178154 5.09993 0.0516383 5.15817C0.0854612 5.21641 0.134088 5.26466 0.192585 5.29804L2.46885 6.61206L0.192585 7.92919C0.134818 7.96278 0.0868771 8.01094 0.0535545 8.06886C0.020232 8.12678 0.00269428 8.19243 0.00269428 8.25925C0.00269428 8.32607 0.020232 8.39173 0.0535545 8.44965C0.0868771 8.50757 0.134818 8.55573 0.192585 8.58931L2.46885 9.90644L0.192585 11.2205C0.134088 11.2538 0.0854612 11.3021 0.0516383 11.3603C0.0178154 11.4186 0 11.4847 0 11.5521C0 11.6194 0.0178154 11.6856 0.0516383 11.7438C0.0854612 11.8021 0.134088 11.8503 0.192585 11.8837L8.13779 16.4673C8.19518 16.4972 8.25933 16.5118 8.32403 16.5097C8.39155 16.5092 8.45782 16.4914 8.51648 16.458L16.4617 11.8744C16.5194 11.8404 16.5672 11.7919 16.6005 11.7337C16.6337 11.6756 16.6512 11.6098 16.6512 11.5428C16.6512 11.4758 16.6337 11.41 16.6005 11.3518C16.5672 11.2936 16.5194 11.2452 16.4617 11.2112V11.2205ZM1.14241 8.25925L3.22933 7.0549L8.11917 9.88471C8.17658 9.91844 8.24192 9.93629 8.30851 9.93645C8.37603 9.93597 8.4423 9.91816 8.50096 9.88471L13.3887 7.05594L15.5036 8.26029L8.31886 12.4062L1.14241 8.25925ZM8.31886 15.6975L1.13724 11.5588L3.22933 10.3317L8.11917 13.1615C8.17652 13.1954 8.24191 13.2132 8.30851 13.2132C8.37511 13.2132 8.4405 13.1954 8.49785 13.1615L13.4022 10.3317L15.4891 11.5536L8.31886 15.6975Z" fill="var(--fill-0, white)"/>
</g>
</svg>
