<svg preserveAspectRatio="none" width="100%" height="100%" overflow="visible" style="display: block;" viewBox="0 0 14.4853 14.4853" fill="none" xmlns="http://www.w3.org/2000/svg">
<g id="Frame 4028">
<path id="play" d="M1.60554 1.52319C1.60512 1.3846 1.63813 1.24796 1.70177 1.12484C1.74656 1.03299 1.80978 0.951338 1.88749 0.884963C1.96519 0.818588 2.05572 0.76891 2.15345 0.739019C2.25117 0.709129 2.354 0.699665 2.45554 0.711217C2.55708 0.722769 2.65516 0.755089 2.74367 0.806167L11.9977 6.28162C12.1254 6.35764 12.229 6.46809 12.2968 6.6003C12.3966 6.78952 12.4213 7.00948 12.3658 7.21612C12.3104 7.42276 12.1789 7.60082 11.9977 7.71464L2.74367 13.1901C2.63104 13.2574 2.50239 13.2931 2.37119 13.2936C2.16133 13.2855 1.96314 13.1948 1.81976 13.0414C1.67637 12.8879 1.59938 12.684 1.60554 12.4741V1.52319Z" fill="var(--fill-0, black)"/>
</g>
</svg>
