<svg preserveAspectRatio="none" width="100%" height="100%" overflow="visible" style="display: block;" viewBox="0 0 25.0696 24.9774" fill="none" xmlns="http://www.w3.org/2000/svg">
<path id="Vector" d="M12.5346 0C5.61197 0 0 5.61197 0 12.5346C0 18.4128 4.04716 23.3454 9.50671 24.7001V16.3651H6.92209V12.5346H9.50671V10.884C9.50671 6.61775 11.4375 4.64029 15.6261 4.64029C16.4203 4.64029 17.7906 4.79622 18.3511 4.95165V8.42373C18.0553 8.39264 17.5414 8.3771 16.9031 8.3771C14.8479 8.3771 14.0537 9.15574 14.0537 11.1798V12.5346H18.148L17.4446 16.3651H14.0537V24.9774C20.2604 24.2278 25.0696 18.9432 25.0696 12.5346C25.0691 5.61197 19.4571 0 12.5346 0Z" fill="var(--fill-0, white)"/>
</svg>
