<svg preserveAspectRatio="none" width="100%" height="100%" overflow="visible" style="display: block;" viewBox="0 0 16 16" fill="none" xmlns="http://www.w3.org/2000/svg">
<g id="android-51 1">
<path id="Vector" d="M4.20939 5.43898H11.7811V5.61253C11.7811 7.49674 11.7814 9.38102 11.7809 11.2652C11.7807 11.9022 11.441 12.239 10.8011 12.2393C10.642 12.2393 10.4828 12.2393 10.3346 12.2393C10.3346 12.9143 10.3419 13.5702 10.3319 14.2259C10.3257 14.6325 9.97427 14.97 9.57142 14.9848C9.13882 15.0006 8.74376 14.7008 8.72843 14.2854C8.70374 13.6138 8.72177 12.9406 8.72177 12.2537H7.27034C7.27034 12.5205 7.27087 12.7876 7.27026 13.0546C7.2694 13.448 7.27781 13.8417 7.26356 14.2346C7.24956 14.6192 6.94717 14.9336 6.57425 14.9807C6.17854 15.0308 5.80844 14.8016 5.69095 14.4272C5.665 14.3444 5.64973 14.2548 5.64914 14.1683C5.64548 13.6092 5.6464 13.0502 5.64813 12.4911C5.64834 12.4144 5.66119 12.3378 5.67028 12.2392C5.48197 12.2392 5.29736 12.2404 5.11267 12.2391C4.56613 12.2351 4.21043 11.8808 4.21005 11.3325C4.20848 9.4173 4.20943 7.50197 4.20938 5.58671V5.43898H4.20939ZM11.7843 4.88013H4.20191C4.27236 3.56937 5.0171 2.75453 6.12403 2.17593C6.01126 2.00499 5.90169 1.83863 5.79179 1.67253C5.7118 1.55175 5.63075 1.43178 5.55119 1.31081C5.49507 1.22549 5.40518 1.12933 5.52986 1.0442C5.66449 0.95225 5.71947 1.08088 5.77894 1.16857C5.92103 1.37839 6.06119 1.58961 6.20182 1.80044C6.37505 2.06009 6.37492 2.06003 6.67264 1.97324C7.61953 1.69727 8.5602 1.71293 9.49435 2.03403C9.52779 2.04557 9.56204 2.05483 9.60585 2.06815C9.79952 1.77817 9.99147 1.49062 10.1834 1.20317C10.2064 1.1687 10.2289 1.13398 10.2526 1.10007C10.3067 1.02275 10.3754 0.981031 10.4618 1.0448C10.54 1.1025 10.5267 1.17611 10.4773 1.24989C10.3105 1.49914 10.1447 1.74918 9.97868 1.99896C9.94164 2.05477 9.90516 2.11095 9.86271 2.1756C10.9636 2.74905 11.715 3.56545 11.7844 4.88013H11.7843ZM10.0216 3.40575C10.0239 3.18648 9.84028 2.9999 9.61981 2.99746C9.39727 2.99496 9.21598 3.17412 9.21422 3.39827C9.2124 3.62516 9.38614 3.80157 9.61269 3.80304C9.83822 3.8044 10.0193 3.6285 10.0216 3.40575ZM6.7714 3.39602C6.76847 3.17214 6.58572 2.9932 6.36411 2.99739C6.1441 3.00147 5.96061 3.19001 5.96448 3.40795C5.96841 3.63031 6.15099 3.80566 6.37584 3.80326C6.6019 3.80086 6.77433 3.62335 6.7714 3.39602ZM13.9415 7.97787C13.9415 8.54152 13.943 9.1052 13.9411 9.6688C13.9393 10.1649 13.5983 10.5232 13.1324 10.5228C12.667 10.5226 12.323 10.1619 12.3225 9.66887C12.3214 8.52604 12.3202 7.3833 12.3234 6.2405C12.3246 5.81983 12.6329 5.48209 13.0396 5.43975C13.463 5.3957 13.8339 5.65831 13.9236 6.0714C13.9408 6.15113 13.9406 6.23563 13.9408 6.318C13.9422 6.87134 13.9415 7.4246 13.9415 7.97792L13.9415 7.97787ZM3.66105 7.97793C3.66105 8.56746 3.66666 9.15709 3.65898 9.74645C3.65425 10.1078 3.39985 10.4122 3.05354 10.5006C2.71497 10.5869 2.34365 10.4466 2.17036 10.1388C2.0997 10.0133 2.04859 9.85776 2.0474 9.71537C2.03765 8.55708 2.03887 7.3987 2.04345 6.24038C2.04528 5.78384 2.40556 5.4336 2.85372 5.4336C3.30375 5.43366 3.65566 5.77858 3.66073 6.24046C3.6672 6.8196 3.66232 7.39878 3.66232 7.97795C3.66188 7.97795 3.66146 7.97795 3.661 7.97795H3.66105V7.97793Z" fill="var(--fill-0, white)"/>
</g>
</svg>
