<svg preserveAspectRatio="none" width="100%" height="100%" overflow="visible" style="display: block;" viewBox="0 0 24.832 24.832" fill="none" xmlns="http://www.w3.org/2000/svg">
<g id="Layer_1">
<path id="Vector" d="M13.9452 12.4262C12.3932 12.4262 11.1309 11.1536 11.1309 9.58087H16.7594C16.7594 11.1536 15.4972 12.4262 13.9452 12.4262Z" fill="var(--fill-0, white)"/>
<path id="Vector_2" d="M12.7557 2.84554C16.0656 2.84554 18.7565 5.55328 18.7566 8.90804C18.7566 10.7725 17.9218 12.4434 16.6189 13.5535L15.7391 14.3026L16.7654 14.8328C18.6937 15.8302 20.2085 17.5335 20.99 19.6014L21.0789 19.8387C21.3219 20.919 20.5039 21.986 19.3777 21.9862H6.1541C4.94516 21.9859 4.08894 20.755 4.52226 19.5994L4.52129 19.5985C5.30307 17.5317 6.8184 15.8298 8.7459 14.8328L9.77226 14.3026L8.89238 13.5535C7.58955 12.4434 6.75469 10.7725 6.75469 8.90804C6.75483 5.55328 9.44574 2.84555 12.7557 2.84554Z" stroke="var(--stroke-0, white)" stroke-width="1.552"/>
</g>
</svg>
