<svg preserveAspectRatio="none" width="100%" height="100%" overflow="visible" style="display: block;" viewBox="0 0 17.5558 16.0812" fill="none" xmlns="http://www.w3.org/2000/svg">
<g id="Group 162188">
<path id="Path 46203" fill-rule="evenodd" clip-rule="evenodd" d="M9.37897 0.00038892C9.31933 -0.000936748 9.25966 0.00115165 9.20026 0.00664392C8.96861 0.0290207 8.74464 0.101707 8.544 0.219623C8.34335 0.33754 8.17087 0.497844 8.03861 0.689336L4.38478 5.47354V5.20547C4.38501 5.13764 4.37189 5.07043 4.34615 5.00768C4.32041 4.94493 4.28256 4.88786 4.23477 4.83973C4.18697 4.79161 4.13017 4.75336 4.0676 4.72719C4.00502 4.70102 3.93791 4.68743 3.87008 4.68719H0.514703C0.446877 4.68743 0.379761 4.70102 0.317187 4.72719C0.254614 4.75336 0.197808 4.79161 0.150014 4.83973C0.10222 4.88786 0.0643725 4.94493 0.0386336 5.00768C0.0128947 5.07043 -0.000231996 5.13764 3.1029e-06 5.20547V15.562C-0.000231996 15.6298 0.0128947 15.697 0.0386336 15.7598C0.0643725 15.8225 0.10222 15.8796 0.150014 15.9277C0.197808 15.9759 0.254614 16.0141 0.317187 16.0403C0.379761 16.0665 0.446877 16.08 0.514703 16.0803H3.87365C3.94148 16.08 4.0086 16.0665 4.07117 16.0403C4.13374 16.0141 4.19055 15.9759 4.23834 15.9277C4.28614 15.8796 4.32398 15.8225 4.34972 15.7598C4.37546 15.697 4.38859 15.6298 4.38835 15.562V15.1376L5.72872 15.9972C5.81269 16.052 5.91081 16.0812 6.01109 16.0812H13.2035C13.53 16.0795 13.8482 15.9777 14.1152 15.7897C14.3821 15.6017 14.5851 15.3363 14.6966 15.0294L17.4569 8.1489L17.464 8.13014C17.5491 7.88786 17.5756 7.62886 17.5412 7.37439C17.5068 7.11992 17.4126 6.87722 17.2663 6.6662C17.12 6.45518 16.9257 6.28185 16.6994 6.16043C16.4732 6.03901 16.2214 5.97296 15.9646 5.96769H10.6166L11.6111 2.80443C11.619 2.78195 11.6252 2.75896 11.6299 2.73562C11.6727 2.48145 11.6545 2.22074 11.5768 1.97497C11.4992 1.72919 11.3642 1.50539 11.1831 1.32199L10.5013 0.506153L10.4745 0.475771C10.1847 0.181347 9.79195 0.010915 9.37897 0.00038892ZM9.35574 1.03515C9.50069 1.03788 9.63873 1.09759 9.73998 1.20135L10.4218 2.01719C10.4301 2.0291 10.4391 2.04042 10.4486 2.05115C10.513 2.11741 10.561 2.19782 10.5888 2.28595C10.6165 2.37408 10.6233 2.46748 10.6085 2.5587L9.41651 6.33137C9.39228 6.40861 9.38654 6.49046 9.39976 6.57032C9.41299 6.65019 9.44479 6.72582 9.49262 6.79113C9.54045 6.85644 9.60296 6.90959 9.67511 6.9463C9.74726 6.983 9.82702 7.00224 9.90797 7.00245H15.9646C16.058 7.00247 16.1499 7.02548 16.2322 7.06945C16.3145 7.11341 16.3848 7.17698 16.4367 7.25453C16.4886 7.33208 16.5207 7.42122 16.53 7.51409C16.5393 7.60696 16.5256 7.70069 16.49 7.78701L13.7307 14.6675V14.6827C13.6925 14.7916 13.6215 14.886 13.5273 14.9528C13.4332 15.0195 13.3207 15.0554 13.2053 15.0554H6.15674L4.38478 13.9134V6.98726C4.50039 6.9597 4.60297 6.8931 4.67519 6.79871L8.87053 1.29518L8.88125 1.27641C8.92814 1.20844 8.98945 1.15166 9.06081 1.11011C9.13217 1.06856 9.21183 1.04327 9.29409 1.03604C9.31462 1.03499 9.3352 1.03499 9.35574 1.03604V1.03515ZM1.03387 5.72463H3.35717V15.0518H1.03387V5.72463Z" fill="var(--fill-0, white)"/>
</g>
</svg>
