<svg preserveAspectRatio="none" width="100%" height="100%" overflow="visible" style="display: block;" viewBox="0 0 12.48 12.4801" fill="none" xmlns="http://www.w3.org/2000/svg">
<g id="Group">
<path id="Vector" d="M11.96 0H9.1C8.96209 0 8.82982 0.0547856 8.7323 0.152305C8.63478 0.249823 8.58 0.382087 8.58 0.52C8.58 0.657912 8.63478 0.790176 8.7323 0.887695C8.82982 0.985214 8.96209 1.04 9.1 1.04H10.7047L6.91236 4.83236C6.86269 4.88033 6.82308 4.93771 6.79583 5.00115C6.76857 5.06459 6.75423 5.13282 6.75363 5.20187C6.75303 5.27092 6.76618 5.33939 6.79233 5.40329C6.81848 5.4672 6.85709 5.52526 6.90591 5.57408C6.95474 5.62291 7.0128 5.66152 7.0767 5.68767C7.14061 5.71381 7.20908 5.72697 7.27813 5.72637C7.34717 5.72577 7.41541 5.71142 7.47885 5.68417C7.54229 5.65692 7.59967 5.6173 7.64764 5.56764L11.44 1.77528V3.38C11.44 3.51791 11.4948 3.65018 11.5923 3.74769C11.6898 3.84521 11.8221 3.9 11.96 3.9C12.0979 3.9 12.2302 3.84521 12.3277 3.74769C12.4252 3.65018 12.48 3.51791 12.48 3.38V0.52C12.48 0.382087 12.4252 0.249823 12.3277 0.152305C12.2302 0.0547856 12.0979 0 11.96 0ZM11.96 8.58C11.8221 8.58 11.6898 8.63478 11.5923 8.7323C11.4948 8.82982 11.44 8.96209 11.44 9.1V10.7047L7.64764 6.91236C7.59967 6.86269 7.54229 6.82308 7.47885 6.79583C7.41541 6.76857 7.34717 6.75423 7.27813 6.75363C7.20908 6.75303 7.14061 6.76618 7.0767 6.79233C7.0128 6.81848 6.95474 6.85709 6.90591 6.90591C6.85709 6.95474 6.81848 7.0128 6.79233 7.0767C6.76618 7.14061 6.75303 7.20908 6.75363 7.27813C6.75423 7.34717 6.76857 7.41541 6.79583 7.47885C6.82308 7.54229 6.86269 7.59967 6.91236 7.64764L10.7047 11.44H9.1C8.96209 11.44 8.82982 11.4948 8.7323 11.5923C8.63478 11.6898 8.58 11.8221 8.58 11.96C8.58 12.0979 8.63478 12.2302 8.7323 12.3277C8.82982 12.4252 8.96209 12.48 9.1 12.48H11.96C12.0979 12.48 12.2302 12.4252 12.3277 12.3277C12.4252 12.2302 12.48 12.0979 12.48 11.96V9.1C12.48 8.96209 12.4252 8.82982 12.3277 8.7323C12.2302 8.63478 12.0979 8.58 11.96 8.58ZM1.77528 1.04H3.38C3.51791 1.04 3.65018 0.985214 3.74769 0.887695C3.84521 0.790176 3.9 0.657912 3.9 0.52C3.9 0.382087 3.84521 0.249823 3.74769 0.152305C3.65018 0.0547856 3.51791 0 3.38 0H0.52C0.382087 0 0.249823 0.0547856 0.152305 0.152305C0.0547856 0.249823 0 0.382087 0 0.52V3.38C0 3.51791 0.0547856 3.65018 0.152305 3.74769C0.249823 3.84521 0.382087 3.9 0.52 3.9C0.657912 3.9 0.790176 3.84521 0.887695 3.74769C0.985214 3.65018 1.04 3.51791 1.04 3.38V1.77528L4.83236 5.56764C4.93402 5.6693 5.06688 5.72 5.2 5.72C5.33312 5.72 5.46598 5.6693 5.56764 5.56764C5.66512 5.47012 5.71989 5.33788 5.71989 5.2C5.71989 5.06211 5.66512 4.92987 5.56764 4.83236L1.77528 1.04ZM4.83236 6.91236L1.04 10.7047V9.1C1.04 8.96209 0.985214 8.82982 0.887695 8.7323C0.790176 8.63478 0.657912 8.58 0.52 8.58C0.382087 8.58 0.249823 8.63478 0.152305 8.7323C0.0547856 8.82982 0 8.96209 0 9.1V11.96C0 12.0979 0.0547856 12.2302 0.152305 12.3277C0.249823 12.4252 0.382087 12.48 0.52 12.48H3.38C3.51791 12.48 3.65018 12.4252 3.74769 12.3277C3.84521 12.2302 3.9 12.0979 3.9 11.96C3.9 11.8221 3.84521 11.6898 3.74769 11.5923C3.65018 11.4948 3.51791 11.44 3.38 11.44H1.77528L5.56764 7.64764C5.6173 7.59967 5.65692 7.54229 5.68417 7.47885C5.71142 7.41541 5.72577 7.34717 5.72637 7.27813C5.72697 7.20908 5.71381 7.14061 5.68767 7.0767C5.66152 7.0128 5.62291 6.95474 5.57408 6.90591C5.52526 6.85709 5.4672 6.81848 5.40329 6.79233C5.33939 6.76618 5.27092 6.75303 5.20187 6.75363C5.13282 6.75423 5.06459 6.76857 5.00115 6.79583C4.93771 6.82308 4.88033 6.86269 4.83236 6.91236Z" fill="var(--fill-0, white)"/>
</g>
</svg>
