<svg preserveAspectRatio="none" width="100%" height="100%" overflow="visible" style="display: block;" viewBox="0 0 80.0845 13.4507" fill="none" xmlns="http://www.w3.org/2000/svg">
<g id="Right Side">
<g id="Battery">
<path id="Outline" opacity="0.35" d="M55.872 0.545898H73.4609C75.4451 0.545898 77.0546 2.1544 77.0546 4.13867V9.31152C77.0546 11.2958 75.4451 12.9053 73.4609 12.9053H55.872C53.8877 12.9053 52.2792 11.2958 52.2792 9.31152V4.13867C52.2792 2.1544 53.8877 0.545898 55.872 0.545898Z" stroke="var(--stroke-0, white)" stroke-width="1.09166"/>
<path id="Battery End" opacity="0.4" d="M78.6347 5.17333V9.53998C79.5132 9.17015 80.0844 8.30982 80.0844 7.35666C80.0844 6.40349 79.5132 5.54316 78.6347 5.17333" fill="var(--fill-0, white)"/>
<path id="Fill" d="M53.8027 4.13866C53.8027 2.9958 54.7291 2.06933 55.872 2.06933H73.4613C74.6042 2.06933 75.5307 2.99581 75.5307 4.13867V9.312C75.5307 10.4549 74.6042 11.3813 73.4613 11.3813H55.872C54.7291 11.3813 53.8027 10.4549 53.8027 9.312V4.13866Z" fill="var(--fill-0, white)"/>
</g>
<path id="Wifi" d="M33.2285 10.4351C34.6976 9.16675 36.8493 9.16675 38.3184 10.4351C38.3921 10.5032 38.4353 10.5992 38.4375 10.7007C38.4395 10.8024 38.4002 10.901 38.3291 10.9722L36.0293 13.3413C35.9619 13.411 35.8694 13.4507 35.7734 13.4507C35.6775 13.4507 35.586 13.411 35.5185 13.3413L33.2178 10.9722C33.1467 10.9009 33.1073 10.8024 33.1094 10.7007C33.1116 10.5992 33.1547 10.5032 33.2285 10.4351ZM30.1182 7.51322C33.2833 4.50793 38.1855 4.50793 41.3506 7.51322C41.422 7.58368 41.4629 7.68042 41.4639 7.78177C41.4649 7.88316 41.4255 7.98034 41.3555 8.05228L40.0264 9.42435C39.8894 9.56428 39.6679 9.56717 39.5273 9.43118C38.488 8.47053 37.1355 7.93799 35.7334 7.93802C34.3321 7.93861 32.9811 8.47111 31.9424 9.43118C31.8019 9.56746 31.5804 9.5642 31.4434 9.42435L30.1133 8.05228C30.0433 7.98048 30.0039 7.88304 30.0049 7.78177C30.0058 7.68048 30.0468 7.58365 30.1182 7.51322ZM27.0127 4.59622C31.8672 -0.152365 39.5254 -0.152487 44.3799 4.59622C44.4501 4.66677 44.4897 4.76319 44.4902 4.8638C44.4908 4.96437 44.4522 5.061 44.3828 5.13236L43.0518 6.50345C42.9146 6.64419 42.692 6.64593 42.5527 6.50736C40.7032 4.71256 38.2483 3.71157 35.6963 3.71146C33.1442 3.7115 30.6896 4.7126 28.8398 6.50736C28.7006 6.64614 28.4779 6.64441 28.3408 6.50345L27.0088 5.13236C26.9394 5.06097 26.9008 4.96434 26.9014 4.8638C26.902 4.76319 26.9424 4.66672 27.0127 4.59622Z" fill="var(--fill-0, white)"/>
<g id="Icon / Mobile Signal">
<path d="M10.3467 4.13867C10.3467 3.56724 10.8099 3.104 11.3813 3.104H12.416C12.9874 3.104 13.4507 3.56724 13.4507 4.13867V12.416C13.4507 12.9874 12.9874 13.4507 12.416 13.4507H11.3813C10.8099 13.4507 10.3467 12.9874 10.3467 12.416V4.13867Z" fill="var(--fill-0, white)"/>
<path d="M15.52 2.06933C15.52 1.4979 15.9832 1.03467 16.5547 1.03467H17.5893C18.1608 1.03467 18.624 1.4979 18.624 2.06933V12.416C18.624 12.9874 18.1608 13.4507 17.5893 13.4507H16.5547C15.9832 13.4507 15.52 12.9874 15.52 12.416V2.06933Z" fill="var(--fill-0, white)"/>
<path d="M5.17333 7.76C5.17333 7.18857 5.63657 6.72533 6.208 6.72533H7.24267C7.8141 6.72533 8.27733 7.18857 8.27733 7.76V12.416C8.27733 12.9874 7.8141 13.4507 7.24267 13.4507H6.208C5.63657 13.4507 5.17333 12.9874 5.17333 12.416V7.76Z" fill="var(--fill-0, white)"/>
<path d="M0 10.3467C0 9.77523 0.463236 9.312 1.03467 9.312H2.06933C2.64076 9.312 3.104 9.77523 3.104 10.3467V12.416C3.104 12.9874 2.64076 13.4507 2.06933 13.4507H1.03467C0.463236 13.4507 0 12.9874 0 12.416V10.3467Z" fill="var(--fill-0, white)"/>
</g>
</g>
</svg>
