<svg preserveAspectRatio="none" width="100%" height="100%" overflow="visible" style="display: block;" viewBox="0 0 20.7345 20.6568" fill="none" xmlns="http://www.w3.org/2000/svg">
<g id="Group 162194">
<path id="Vector" d="M12.7177 16.2274C12.7177 16.2676 12.7177 16.3106 12.7149 16.3536L12.4821 20.6541H8.23131L8.07611 16.3106C8.03013 14.9995 9.08204 13.9093 10.3984 13.9093C11.7147 13.9093 12.7206 14.9565 12.7206 16.2245L12.7177 16.2274Z" fill="var(--fill-0, white)"/>
<path id="Vector_2" d="M8.50688 1.37012C9.61963 0.578221 11.1151 0.578081 12.2315 1.37109L18.6084 5.89746C19.56 6.57434 20.0651 7.71017 19.9366 8.8623L19.9248 8.94922L18.7989 17.1133C18.5792 18.6993 17.2208 19.8809 15.6153 19.8809H15.1495L15.3321 16.4961L15.334 16.4746V16.4307C15.3365 16.3707 15.3399 16.299 15.3399 16.2275C15.3399 13.5051 13.1217 11.2939 10.3955 11.2939C9.04489 11.2941 7.78106 11.8299 6.84184 12.7979C5.90147 13.7671 5.40558 15.0536 5.45316 16.4063V16.4072L5.57914 19.8809H5.11625C3.51105 19.8808 2.15382 18.6968 1.93656 17.1143L1.93559 17.1133L0.80668 8.94824L0.783242 8.72656C0.707601 7.62199 1.21182 6.54869 2.12797 5.89844V5.89746L8.5059 1.37109L8.50688 1.37012Z" stroke="var(--stroke-0, white)" stroke-width="1.552"/>
</g>
</svg>
