<svg preserveAspectRatio="none" width="100%" height="100%" overflow="visible" style="display: block;" viewBox="0 0 16 16" fill="none" xmlns="http://www.w3.org/2000/svg">
<g id="ios-5 1">
<path id="Vector" d="M3.94531 8.43685C3.96398 6.66573 2.41041 5.81707 2.34132 5.77491C3.21334 4.57308 4.57272 4.40791 5.05821 4.38859C6.21592 4.27965 7.31575 5.02991 7.90208 5.02991C8.4884 5.02991 9.39403 4.40616 10.3538 4.42197C11.6142 4.43954 12.7775 5.11249 13.4274 6.17551C14.7382 8.31561 13.7635 11.4853 12.4862 13.2196C11.8626 14.0682 11.1175 15.0223 10.1409 14.9889C9.19983 14.9538 8.84505 14.4161 7.70788 14.4161C6.57071 14.4161 6.2514 14.9889 5.25427 14.9713C4.24221 14.9538 3.59987 14.1051 2.97993 13.2529C2.26289 12.2672 1.96786 11.3131 1.95106 11.2657C1.97347 11.2552 3.92664 10.5523 3.94531 8.43685ZM5.81633 3.24123C5.29722 2.6491 4.94804 1.82855 5.04327 1.00977C5.79018 1.03788 6.69581 1.47714 7.23172 2.06751C7.71161 2.59287 8.13362 3.42923 8.01971 4.23045C7.18691 4.29195 6.33543 3.8316 5.81633 3.24123Z" fill="var(--fill-0, white)"/>
</g>
</svg>
