<svg preserveAspectRatio="none" width="100%" height="100%" overflow="visible" style="display: block;" viewBox="0 0 13.2434 13.2433" fill="none" xmlns="http://www.w3.org/2000/svg">
<g id="Group">
<path id="Vector" fill-rule="evenodd" clip-rule="evenodd" d="M0.0193994 0H4.82937V4.7976H0.0193994V0ZM12.0168 12.0345H13.2433V13.2433H12.0168V12.0345ZM9.65982 12.0323H10.8863V13.184H9.65982H9.65874H8.43335V10.8289H9.62102V9.63513H10.8292V7.25522H12.0556V8.42521H13.2239V9.63405H12.0556V10.8429H10.8475H10.8292H9.65982V12.0323ZM6.01812 9.61571H7.2058V8.40686H6.05692V7.19802H7.2058V5.98917H6.03752V7.19802H4.80997V5.98917H6.01704V2.39934H7.24352V5.98809H8.43119V7.19694H9.59947V5.98809H10.8259V7.19694H9.65982V8.40578H8.43335V10.7857H7.24459V13.185H6.01812V9.61571ZM11.9964 5.98809H13.2228V7.19694H11.9964V5.98809ZM2.41522 5.98809H3.6417V7.19694H2.41522V5.98809ZM0.0193994 5.98809H1.24587V7.19694H0.0193994V5.98809ZM6.01812 0H7.24459V1.20884H6.01812V0ZM0 8.42521H4.80997V13.2228H0V8.42521ZM1.16827 9.59088H3.6417V12.0582H1.16827V9.59088ZM8.41287 0H13.2228V4.7976H8.41287V0ZM9.58222 1.16567H12.0556V3.63301H9.58222V1.16567ZM1.18767 1.16567H3.6611V3.63301H1.18767V1.16567Z" fill="var(--fill-0, white)"/>
</g>
</svg>
