<svg preserveAspectRatio="none" width="100%" height="100%" overflow="visible" style="display: block;" viewBox="0 0 16.5547 16.5547" fill="none" xmlns="http://www.w3.org/2000/svg">
<g id="Frame">
<path id="Vector" d="M14.485 8.27733C14.0711 8.27733 13.7952 8.55324 13.7952 8.96711V13.1058C13.7952 13.5196 13.5193 13.7956 13.1054 13.7956H3.44855C3.03468 13.7956 2.75877 13.5196 2.75877 13.1058V8.96711C2.75877 8.55324 2.48286 8.27733 2.069 8.27733C1.65513 8.27733 1.37922 8.55324 1.37922 8.96711V13.1058C1.37922 14.2784 2.27593 15.1751 3.44855 15.1751H13.1054C14.2781 15.1751 15.1748 14.2784 15.1748 13.1058V8.96711C15.1748 8.55324 14.8989 8.27733 14.485 8.27733ZM6.00073 5.31129L7.58722 3.7248V10.3467C7.58722 10.7605 7.86313 11.0364 8.27699 11.0364C8.69086 11.0364 8.96677 10.7605 8.96677 10.3467V3.7248L10.5533 5.31129C10.8292 5.5872 11.243 5.5872 11.519 5.31129C11.7949 5.03537 11.7949 4.62151 11.519 4.3456L8.75984 1.58649C8.69086 1.51751 8.62188 1.44853 8.55291 1.44853C8.41495 1.37955 8.20802 1.37955 8.00108 1.44853C7.93211 1.44853 7.86313 1.51751 7.79415 1.58649L5.03504 4.3456C4.75913 4.62151 4.75913 5.03537 5.03504 5.31129C5.31095 5.5872 5.72482 5.5872 6.00073 5.31129Z" fill="var(--fill-0, white)"/>
</g>
</svg>
