<svg preserveAspectRatio="none" width="100%" height="100%" overflow="visible" style="display: block;" viewBox="0 0 108.387 30" fill="none" xmlns="http://www.w3.org/2000/svg">
<g id="Layer_1" opacity="0.8" clip-path="url(#clip0_2322_6517)">
<path id="Vector" d="M71.4483 25.7157L72.6464 23.5953L17.212 28.3931L71.4483 25.7157Z" fill="var(--fill-0, #EBECED)"/>
<path id="Vector_2" d="M70.3339 28.1752L71.2209 26.7397L33.1357 30L70.3339 28.1752Z" fill="var(--fill-0, #EBECED)"/>
<path id="Vector_3" d="M24.2597 24.8403L26.4332 17.9205L33.3669 17.4785L34.7345 13.1714L27.788 13.6141L28.9667 9.84939L36.6284 9.36176L38.0619 4.81155L24.885 5.65043L18.758 25.1907L24.2597 24.8403Z" fill="var(--fill-0, #EBECED)"/>
<path id="Vector_4" d="M37.6075 23.9892L39.853 20.0378L45.5767 19.6736L45.3082 23.4993L51.1098 23.1297L51.3182 3.96658L44.398 4.40697L31.9357 24.3503L37.6075 23.9892ZM46.0992 8.9968L46.3721 8.98004L45.9148 15.6842L42.1428 15.9242L46.0992 8.9968Z" fill="var(--fill-0, #EBECED)"/>
<path id="Vector_5" d="M60.6126 23.0574C65.8032 22.726 69.5024 19.8764 69.956 15.7734C70.2634 12.9932 68.9926 11.5219 65.8301 10.8072L63.7256 10.331C62.3018 10.0102 61.8235 9.43041 61.9149 8.60143C62.0244 7.61246 63.2098 6.82005 64.5758 6.7332C66.1758 6.6311 67.2809 7.5035 67.152 8.6662L72.1993 8.34466C72.6626 4.62571 69.8893 2.25461 65.2064 2.55252C60.4972 2.85272 56.7439 5.8387 56.3225 9.64755C56.0211 12.3737 57.4959 14.2176 60.366 14.898L62.418 15.378C64.0165 15.7536 64.5173 16.1338 64.4334 16.895C64.3149 17.964 63.0786 18.7465 61.4531 18.8501C59.9438 18.9461 58.6933 18.2299 58.7322 17.0596L53.5027 17.3925C53.0379 21.244 55.9432 23.3553 60.6126 23.0574Z" fill="var(--fill-0, #EBECED)"/>
<path id="Vector_6" d="M88.2072 8.59059L82.6913 10.3232L84.1638 6.3353L89.2771 6.00996L90.7106 1.45898L74.7626 2.47463L73.3291 7.02484L78.5451 6.69264L79.0617 6.65988L75.6188 16.1344L80.3198 14.6426L73.7865 28.2315L88.2072 8.59059Z" fill="var(--fill-0, #EBECED)"/>
<path id="Vector_7" d="M19.6791 17.0884C19.6799 17.0869 19.6806 17.0854 19.6814 17.0838C19.6829 17.0815 19.6836 17.0793 19.6851 17.0777C19.6851 17.0777 19.6851 17.0777 19.6851 17.077C20.3412 15.8899 20.0308 14.6106 18.655 13.6902L13.3872 10.1663L8.11947 6.64319C7.31574 6.10603 6.50076 5.92698 5.7615 6.06032C5.75925 6.06184 5.757 6.06336 5.754 6.06489C5.49384 6.11365 5.24342 6.19975 5.00575 6.32394C5.00575 6.32394 5.00425 6.32394 5.0035 6.3247C4.97951 6.33689 4.95552 6.35061 4.93228 6.36356C4.92328 6.3689 4.91428 6.37347 4.90529 6.3788C4.88504 6.39023 4.8648 6.40242 4.84456 6.41461C4.83031 6.42299 4.81681 6.43213 4.80257 6.44052C4.78608 6.45118 4.76958 6.46109 4.75384 6.47176C4.72385 6.49157 4.69461 6.51214 4.66537 6.53271C4.65712 6.5388 4.64887 6.5449 4.64137 6.55023C4.61663 6.56776 4.59264 6.58604 4.56865 6.60509C4.56115 6.61043 4.5544 6.61652 4.5469 6.62262C4.51991 6.64395 4.49292 6.66605 4.46593 6.6889C4.46293 6.69119 4.45993 6.69424 4.45693 6.69652C3.80765 7.25197 3.30906 8.13351 3.06839 9.28554L2.71001 10.9991L1.59438 16.3318L0.120371 23.3789C-0.106054 24.4623 -0.00483764 25.3073 0.355043 25.8658C1.23525 26.313 2.51133 25.9991 3.89537 24.8387L5.07623 23.8497C5.02974 23.628 4.999 23.3872 4.98476 23.1274L4.61363 16.3211L4.31598 10.8589V10.8574C4.54391 10.8863 4.77783 10.9359 5.017 11.0044L11.3329 12.8285L16.4012 14.2921L17.6496 14.6525C17.7425 14.6792 17.8318 14.7082 17.9187 14.7386C17.8333 14.7089 17.7455 14.6807 17.6541 14.6541L16.4057 14.2937C16.2213 14.488 16.0151 14.6822 15.7857 14.8743L9.84015 19.8572L5.07623 23.8505L3.89537 24.8402C2.51133 26.0006 1.23525 26.3145 0.355043 25.8673C0.964591 26.8151 2.31639 26.9424 4.07381 26.0243L5.68128 25.1831L5.71052 25.1679L10.8043 22.5057L17.5461 18.9825C18.5755 18.4439 19.293 17.7825 19.6791 17.0884Z" fill="var(--fill-0, #EBECED)"/>
<path id="Vector_8" d="M108.346 1.46692C108.209 0.760617 107.589 0.0405989 106.773 0.039075C103.465 0.0337416 100.231 -0.0637847 96.8713 0.0733616C95.4685 0.130506 93.8281 1.32063 93.3077 2.67305L84.7396 24.9548C84.5409 25.4713 84.4936 26.0047 84.6638 26.5342C84.8603 27.1461 85.5058 27.7815 86.1963 27.7815H96.0758C96.95 27.6207 97.7538 27.2847 98.4465 26.6615C98.9301 26.2272 99.4212 25.7273 99.6709 25.0774L108.159 2.95877C108.349 2.46276 108.45 2.00408 108.346 1.46692ZM98.9938 23.4431H86.8186L94.2112 4.13518L106.384 4.13823L98.9938 23.4431Z" fill="var(--fill-0, #EBECED)"/>
<path id="Vector_9" d="M91.8022 12.1499L93.4307 12.1369L91.7197 16.7184L93.4404 16.7046L95.1513 12.1232L96.7798 12.1102L97.3016 10.7197L92.324 10.7593L91.8022 12.1499Z" fill="var(--fill-0, #EBECED)"/>
<path id="Vector_10" d="M91.7199 16.7181H91.7186H91.7199Z" fill="var(--fill-0, #EBECED)"/>
<path id="Vector_11" d="M97.0472 16.6753H97.0459H97.0472Z" fill="var(--fill-0, #EBECED)"/>
<path id="Vector_12" d="M99.2881 16.6572L103.259 10.6715L101.306 10.6875L98.8405 14.9002H98.7595L99.3893 10.7027L97.4692 10.718L97.0471 16.6755L99.2881 16.6572Z" fill="var(--fill-0, #EBECED)"/>
</g>
<defs>
<clipPath id="clip0_2322_6517">
<rect width="108.387" height="30" fill="white"/>
</clipPath>
</defs>
</svg>
