<svg preserveAspectRatio="none" width="100%" height="100%" overflow="visible" style="display: block;" viewBox="0 0 52 52" fill="none" xmlns="http://www.w3.org/2000/svg">
<g id="Frame 4055">
<rect width="52" height="52" rx="26" fill="var(--fill-0, white)"/>
<path id="Path 46194" d="M17.995 33.4401V18.5588C17.9952 18.2852 18.0675 18.0164 18.2044 17.7795C18.3414 17.5426 18.5382 17.3458 18.7752 17.209C19.0122 17.0722 19.281 17.0001 19.5546 17C19.8283 16.9999 20.0972 17.0717 20.3343 17.2083L33.2379 24.6531C33.4727 24.7915 33.6671 24.989 33.8017 25.226C33.9363 25.4631 34.0064 25.7312 34.005 26.0038C34.0036 26.2763 33.9308 26.5438 33.7937 26.7794C33.6567 27.015 33.4602 27.2105 33.224 27.3465L20.3343 34.7912C20.0972 34.928 19.8282 35.0001 19.5544 35C19.2806 34.9999 19.0117 34.9278 18.7746 34.7909C18.5375 34.654 18.3407 34.4571 18.2038 34.22C18.0669 33.9828 17.9949 33.7139 17.995 33.4401Z" fill="var(--fill-0, black)"/>
</g>
</svg>
