<svg preserveAspectRatio="none" width="100%" height="100%" overflow="visible" style="display: block;" viewBox="0 0 24.9686 28" fill="none" xmlns="http://www.w3.org/2000/svg">
<g id="Group">
<path id="Vector" d="M24.8421 7.53914C24.7594 7.42618 23.1675 5.78448 22.9839 5.60902C22.8106 5.42588 21.1672 3.83353 21.0543 3.75128C20.9615 3.67957 20.8496 3.63667 20.7327 3.6279C20.6157 3.61912 20.4987 3.64486 20.3963 3.70193C20.0706 3.91162 19.7936 4.18849 19.5836 4.514C19.5265 4.61694 19.5007 4.73435 19.5095 4.85176C19.5182 4.96917 19.5612 5.08144 19.633 5.17474C19.6703 5.22574 20.0201 5.59367 20.4072 5.99724C20.2329 6.16174 20.0377 6.35091 19.837 6.54557C20.1294 6.79012 20.4125 7.04875 20.6863 7.32145C21.1568 7.79194 21.5901 8.29829 21.982 8.83594C22.2014 8.60948 22.413 8.38741 22.6 8.19165C23.0019 8.57877 23.3677 8.92806 23.4225 8.96589C23.5155 9.03715 23.6273 9.07976 23.7442 9.08852C23.861 9.09729 23.9779 9.07182 24.0805 9.01524C24.2432 8.91172 24.3937 8.79013 24.5291 8.6528C24.6659 8.51735 24.7873 8.3671 24.891 8.20481C24.9492 8.10137 24.9757 7.98303 24.967 7.86461C24.9583 7.74619 24.9149 7.63297 24.8421 7.53914ZM7.88388 2.90959C7.97271 2.9233 8.68828 2.94139 9.47404 2.9562C9.46801 3.20843 9.46198 3.48314 9.4565 3.76828C10.9162 3.51531 12.4086 3.51531 13.8684 3.76828C13.8623 3.48314 13.8569 3.20843 13.8508 2.9562C14.6382 2.94139 15.3538 2.9233 15.441 2.90959C15.7618 2.87395 16.076 2.61623 16.1489 2.29985C16.2075 2.03428 16.2364 1.76301 16.235 1.49106C16.2367 1.21909 16.2078 0.947796 16.1489 0.682274C16.0793 0.365887 15.7651 0.108172 15.4459 0.0725308C15.2491 0.0423727 12.0205 -0.00862199 11.6624 0.00124795C11.306 -0.00862199 8.07744 0.0423727 7.88224 0.0725308C7.56146 0.108172 7.24727 0.365887 7.17434 0.682274C7.11545 0.947796 7.08658 1.21909 7.08825 1.49106C7.0863 1.76304 7.11518 2.03437 7.17434 2.29985C7.24891 2.61623 7.56311 2.87395 7.88388 2.90959Z" fill="var(--fill-0, #009CDB)"/>
<path id="Vector_2" d="M11.6625 4.67514C5.22122 4.67514 0 9.89689 0 16.3376C0 22.7783 5.22286 28 11.6625 28C18.1021 28 23.3266 22.7788 23.3266 16.3376C23.3266 9.89634 18.1048 4.67514 11.6625 4.67514ZM16.1275 15.2382L11.0226 23.116C10.9649 23.2051 10.8858 23.2784 10.7925 23.329C10.6992 23.3797 10.5947 23.4062 10.4885 23.4061H10.0888C9.99245 23.4061 9.8974 23.3842 9.81077 23.3421C9.72414 23.3 9.64819 23.2388 9.58865 23.1631C9.5291 23.0874 9.4875 22.9991 9.46699 22.905C9.44649 22.8109 9.4476 22.7134 9.47025 22.6198L10.7303 17.4282H7.66294C7.57699 17.4283 7.49213 17.4089 7.41479 17.3714C7.33745 17.3339 7.26965 17.2793 7.21651 17.2117C7.16337 17.1442 7.12629 17.0654 7.10806 16.9814C7.08984 16.8974 7.09095 16.8104 7.11132 16.7269L8.81115 9.70332C8.84082 9.58005 8.91097 9.47028 9.01037 9.39155C9.10977 9.31283 9.23269 9.2697 9.35948 9.26905H12.8885C12.9745 9.26903 13.0593 9.28853 13.1366 9.32606C13.2138 9.36359 13.2816 9.41818 13.3347 9.48571C13.3878 9.55324 13.4249 9.63195 13.4432 9.71591C13.4615 9.79986 13.4604 9.88686 13.4402 9.97036L12.4016 14.2556H15.5896C15.7046 14.2546 15.8176 14.2848 15.9168 14.343C16.0159 14.4011 16.0975 14.485 16.1528 14.5857C16.2082 14.6865 16.2352 14.8003 16.231 14.9152C16.2269 15.0301 16.1917 15.1417 16.1292 15.2382H16.1275Z" fill="var(--fill-0, #009CDB)"/>
</g>
</svg>
