<svg preserveAspectRatio="none" width="100%" height="100%" overflow="visible" style="display: block;" viewBox="0 0 28 22.4" fill="none" xmlns="http://www.w3.org/2000/svg">
<g id="Group">
<path id="Vector" fill-rule="evenodd" clip-rule="evenodd" d="M4.55 2.55406e-05C3.34327 2.55406e-05 2.18596 0.479399 1.33266 1.33269C0.479374 2.18598 8.19564e-07 3.34329 8.19564e-07 4.55003V17.85C8.19564e-07 19.0568 0.479374 20.2141 1.33266 21.0674C2.18596 21.9207 3.34327 22.4 4.55 22.4H23.45C24.0475 22.4 24.6392 22.2823 25.1912 22.0537C25.7432 21.825 26.2448 21.4899 26.6673 21.0674C27.0898 20.6449 27.425 20.1433 27.6537 19.5912C27.8823 19.0392 28 18.4475 28 17.85V4.55003C28 3.95251 27.8823 3.36085 27.6537 2.80882C27.425 2.25678 27.0898 1.7552 26.6673 1.33269C26.2448 0.910183 25.7432 0.575033 25.1912 0.346374C24.6392 0.117715 24.0475 2.55406e-05 23.45 2.55406e-05H4.55ZM11.2 8.05143C11.2 7.24083 12.0064 6.73542 12.6476 7.14562L17.7926 10.4258C18.3358 10.7716 18.3358 11.6284 17.7926 11.9742L12.6476 15.2544C12.0064 15.6646 11.2 15.1592 11.2 14.3486V8.05143ZM18.8048 19.6C18.8048 19.3215 18.9154 19.0545 19.1123 18.8576C19.3093 18.6606 19.5763 18.55 19.8548 18.55H22.6548C22.9333 18.55 23.2003 18.6606 23.3973 18.8576C23.5942 19.0545 23.7048 19.3215 23.7048 19.6C23.7048 19.8785 23.5942 20.1456 23.3973 20.3425C23.2003 20.5394 22.9333 20.65 22.6548 20.65H19.8548C19.5763 20.65 19.3093 20.5394 19.1123 20.3425C18.9154 20.1456 18.8048 19.8785 18.8048 19.6ZM12.7274 18.55C12.4489 18.55 12.1819 18.6606 11.9849 18.8576C11.788 19.0545 11.6774 19.3215 11.6774 19.6C11.6774 19.8785 11.788 20.1456 11.9849 20.3425C12.1819 20.5394 12.4489 20.65 12.7274 20.65H15.5274C15.8059 20.65 16.0729 20.5394 16.2699 20.3425C16.4668 20.1456 16.5774 19.8785 16.5774 19.6C16.5774 19.3215 16.4668 19.0545 16.2699 18.8576C16.0729 18.6606 15.8059 18.55 15.5274 18.55H12.7274ZM4.55 19.6C4.55 19.3215 4.66063 19.0545 4.85754 18.8576C5.05445 18.6606 5.32152 18.55 5.6 18.55H8.4C8.67848 18.55 8.94555 18.6606 9.14246 18.8576C9.33938 19.0545 9.45 19.3215 9.45 19.6C9.45 19.8785 9.33938 20.1456 9.14246 20.3425C8.94555 20.5394 8.67848 20.65 8.4 20.65H5.6C5.32152 20.65 5.05445 20.5394 4.85754 20.3425C4.66063 20.1456 4.55 19.8785 4.55 19.6ZM19.8548 1.75003C19.5763 1.75003 19.3093 1.86065 19.1123 2.05756C18.9154 2.25448 18.8048 2.52155 18.8048 2.80003C18.8048 3.0785 18.9154 3.34557 19.1123 3.54249C19.3093 3.7394 19.5763 3.85003 19.8548 3.85003H22.6548C22.9333 3.85003 23.2003 3.7394 23.3973 3.54249C23.5942 3.34557 23.7048 3.0785 23.7048 2.80003C23.7048 2.52155 23.5942 2.25448 23.3973 2.05756C23.2003 1.86065 22.9333 1.75003 22.6548 1.75003H19.8548ZM11.676 2.80003C11.676 2.52155 11.7866 2.25448 11.9835 2.05756C12.1805 1.86065 12.4475 1.75003 12.726 1.75003H15.526C15.8045 1.75003 16.0715 1.86065 16.2685 2.05756C16.4654 2.25448 16.576 2.52155 16.576 2.80003C16.576 3.0785 16.4654 3.34557 16.2685 3.54249C16.0715 3.7394 15.8045 3.85003 15.526 3.85003H12.726C12.4475 3.85003 12.1805 3.7394 11.9835 3.54249C11.7866 3.34557 11.676 3.0785 11.676 2.80003ZM5.6 1.75003C5.32152 1.75003 5.05445 1.86065 4.85754 2.05756C4.66063 2.25448 4.55 2.52155 4.55 2.80003C4.55 3.0785 4.66063 3.34557 4.85754 3.54249C5.05445 3.7394 5.32152 3.85003 5.6 3.85003H8.4C8.67848 3.85003 8.94555 3.7394 9.14246 3.54249C9.33938 3.34557 9.45 3.0785 9.45 2.80003C9.45 2.52155 9.33938 2.25448 9.14246 2.05756C8.94555 1.86065 8.67848 1.75003 8.4 1.75003H5.6Z" fill="var(--fill-0, #009CDB)"/>
</g>
</svg>
