<svg preserveAspectRatio="none" width="100%" height="100%" overflow="visible" style="display: block;" viewBox="0 0 15.2728 28" fill="none" xmlns="http://www.w3.org/2000/svg">
<g id="Group">
<path id="Vector" d="M12.2945 1.49012e-08H2.97812C1.33397 0.00184945 0.00172312 1.33416 5.26607e-05 2.97831V25.0219C0.00166346 26.6661 1.33403 27.9983 2.97812 28H12.2945C13.9387 27.9984 15.2709 26.666 15.2728 25.0219V2.97831C15.271 1.33416 13.9387 0.00190911 12.2945 1.49012e-08ZM7.63644 25.4547C6.93335 25.4547 6.36355 24.885 6.36355 24.1818C6.36355 23.479 6.93329 22.9092 7.63644 22.9092C8.33928 22.9092 8.90909 23.4789 8.90909 24.1818C8.90909 24.8849 8.33934 25.4547 7.63644 25.4547ZM9.54553 3.81819H5.72734C5.37595 3.81819 5.0909 3.5332 5.0909 3.18175C5.0909 2.8303 5.37589 2.54554 5.72734 2.54554H9.54553C9.89693 2.54554 10.1817 2.8303 10.1817 3.18175C10.1817 3.5332 9.89699 3.81819 9.54553 3.81819Z" fill="var(--fill-0, #009CDB)"/>
</g>
</svg>
