<svg preserveAspectRatio="none" width="100%" height="100%" overflow="visible" style="display: block;" viewBox="0 0 28.4735 32.5792" fill="none" xmlns="http://www.w3.org/2000/svg">
<g id="Group">
<path id="Vector" d="M13.7617 32.5792H1.95615C1.13128 32.5792 0.360003 31.8339 0.1246 31.1163C-0.079225 30.496 -0.0218025 29.8699 0.215515 29.2639L10.4536 3.13382C11.0756 1.54774 13.0364 0.152533 14.7119 0.0857305C18.7272 -0.0755489 22.5922 0.038969 26.5443 0.0456493C27.5185 0.0475579 28.2601 0.892128 28.4237 1.71952C28.5481 2.34937 28.4266 2.8876 28.1998 3.46878L18.0574 29.4071C17.7597 30.1686 17.1722 30.7555 16.5942 31.2651C15.7665 31.9962 14.8057 32.3893 13.7608 32.5792H13.7617ZM16.2957 3.06988C16.8057 3.05079 17.1177 2.45911 16.9636 2.21004C16.9349 2.16328 16.7732 2.08979 16.7138 2.08598C16.3617 2.0583 15.9875 2.34078 15.9225 2.70437C15.889 2.89428 16.0421 3.07942 16.2966 3.06988H16.2957ZM21.1358 3.05747C21.4669 3.05652 21.9683 2.43621 21.708 2.17187C21.6611 2.12415 21.4927 2.05067 21.4123 2.05067L18.1645 2.05735C17.8516 2.05735 17.3138 2.59654 17.5263 2.90192C17.5732 2.96872 17.753 3.06988 17.8392 3.06988L21.1339 3.05652H21.1358V3.05747ZM17.2478 27.4918L26.0792 4.85349L11.5331 4.84872L2.69873 27.4899H17.2478V27.4918ZM8.2508 31.5629C9.3082 31.4799 10.1905 30.7078 10.4163 29.7392C10.489 29.4262 10.3981 29.0874 10.2441 28.8994C10.0268 28.636 9.70245 28.511 9.3637 28.532C8.35128 28.595 7.44028 29.3508 7.19531 30.3395C7.1178 30.6544 7.2202 31.0056 7.35895 31.1917C7.54842 31.4465 7.8776 31.5906 8.25176 31.5619L8.2508 31.5629Z" fill="var(--fill-0, #FF6D2D)"/>
<path id="Vector_2" d="M17.2473 27.4918L2.69922 27.4908L11.5335 4.84967L26.0797 4.85349L17.2473 27.4918Z" fill="var(--fill-0, white)"/>
<path id="Vector_3" d="M8.25054 31.5629C7.87734 31.5925 7.54721 31.4474 7.35774 31.1926C7.21898 31.0056 7.11563 30.6553 7.19409 30.3404C7.43907 29.3517 8.3491 28.5959 9.36249 28.5329C9.70124 28.5119 10.0266 28.637 10.2429 28.9003C10.3969 29.0874 10.4878 29.4271 10.4151 29.7401C10.1893 30.7088 9.30794 31.4808 8.24958 31.5638L8.25054 31.5629Z" fill="var(--fill-0, white)"/>
<path id="Vector_4" d="M21.1355 3.05747L17.8408 3.07083C17.7537 3.07083 17.5738 2.96967 17.5278 2.90287C17.3154 2.59653 17.8532 2.0583 18.1661 2.0583L21.4139 2.05162C21.4943 2.05162 21.6618 2.1251 21.7096 2.17282C21.9699 2.43716 21.4685 3.05651 21.1374 3.05842H21.1355V3.05747Z" fill="var(--fill-0, white)"/>
<path id="Vector_5" d="M16.2957 3.06987C16.0421 3.07942 15.888 2.89428 15.9215 2.70437C15.9866 2.34078 16.3607 2.0583 16.7129 2.08597C16.7722 2.09074 16.9339 2.16327 16.9626 2.21003C17.1177 2.45911 16.8057 3.05079 16.2947 3.06987H16.2957Z" fill="var(--fill-0, white)"/>
</g>
</svg>
