<svg width="129" height="36" viewBox="0 0 129 36" fill="none" xmlns="http://www.w3.org/2000/svg">
<g clip-path="url(#clip0_1600_6965)">
<path d="M114.288 32.5794H102.483C101.658 32.5794 100.887 31.8341 100.651 31.1164C100.447 30.4961 100.505 29.8701 100.742 29.2641L110.98 3.13398C111.602 1.5479 113.563 0.152695 115.238 0.0858927C119.254 -0.0753868 123.119 0.0391312 127.071 0.0458114C128.045 0.04772 128.787 0.89229 128.95 1.71968C129.075 2.34953 128.953 2.88776 128.726 3.46894L118.584 29.4073C118.286 30.1688 117.699 30.7557 117.121 31.2653C116.293 31.9963 115.332 32.3895 114.287 32.5794H114.288ZM116.822 3.07004C117.332 3.05095 117.644 2.45928 117.49 2.2102C117.461 2.16344 117.3 2.08996 117.24 2.08614C116.888 2.05846 116.514 2.34094 116.449 2.70454C116.415 2.89444 116.569 3.07958 116.823 3.07004H116.822ZM121.662 3.05763C121.993 3.05668 122.495 2.43637 122.235 2.17203C122.188 2.12431 122.019 2.05083 121.939 2.05083L118.691 2.05751C118.378 2.05751 117.84 2.5967 118.053 2.90208C118.1 2.96888 118.28 3.07004 118.366 3.07004L121.66 3.05668H121.662V3.05763ZM117.774 27.4919L126.606 4.85366L112.06 4.84888L103.225 27.49H117.774V27.4919ZM108.777 31.5631C109.835 31.48 110.717 30.708 110.943 29.7394C111.016 29.4263 110.925 29.0876 110.771 28.8996C110.553 28.6362 110.229 28.5112 109.89 28.5321C108.878 28.5951 107.967 29.351 107.722 30.3396C107.644 30.6545 107.747 31.0057 107.885 31.1918C108.075 31.4466 108.404 31.5907 108.778 31.5621L108.777 31.5631Z" fill="#FF6D2D"/>
<path d="M117.774 27.4919L103.226 27.491L112.06 4.84983L126.606 4.85365L117.774 27.4919Z" fill="white"/>
<path d="M108.777 31.5631C108.404 31.5926 108.074 31.4476 107.884 31.1928C107.746 31.0057 107.642 30.6555 107.721 30.3406C107.966 29.3519 108.876 28.5961 109.889 28.5331C110.228 28.5121 110.553 28.6371 110.769 28.9005C110.923 29.0876 111.014 29.4273 110.942 29.7403C110.716 30.7089 109.834 31.481 108.776 31.564L108.777 31.5631Z" fill="white"/>
<path d="M121.662 3.05763L118.367 3.07099C118.28 3.07099 118.1 2.96983 118.054 2.90303C117.842 2.5967 118.38 2.05846 118.693 2.05846L121.94 2.05178C122.021 2.05178 122.188 2.12526 122.236 2.17298C122.496 2.43732 121.995 3.05668 121.664 3.05858H121.662V3.05763Z" fill="white"/>
<path d="M116.822 3.07004C116.569 3.07958 116.415 2.89444 116.448 2.70453C116.513 2.34094 116.887 2.05846 117.239 2.08614C117.299 2.09091 117.46 2.16344 117.489 2.2102C117.644 2.45927 117.332 3.05095 116.821 3.07004H116.822Z" fill="white"/>
<path d="M108.156 19.6227L110.683 14.9866L108.864 14.9999L109.631 13.5923L115.19 13.5522L114.423 14.9599L112.605 14.9732L110.079 19.6093L108.156 19.6236V19.6227Z" fill="#FF6D2D"/>
<path d="M114.657 19.5759L115.932 13.5465L118.167 13.5303L116.901 17.778H116.992L120.308 13.515L122.398 13.4998L117.161 19.5578L114.657 19.5759Z" fill="#FF6D2D"/>
<path d="M94.6318 7.38927L90.3611 18.9222L95.9782 17.172L88.1707 33.1071L105.404 10.0747L98.8117 12.1065L100.862 6.65731L94.6318 7.38927Z" fill="white"/>
<path d="M20.5662 33.297L86.8092 27.6704L85.3777 30.1573L20.5662 33.297Z" fill="white"/>
<path d="M39.5937 35.1818L85.105 31.3579L84.0456 33.0413L39.5937 35.1818Z" fill="white"/>
<path d="M22.4131 29.5418L29.7354 6.62773L45.4816 5.64383L43.7687 10.9804L34.6129 11.552L33.2043 15.9667L41.5047 15.4485L39.8702 20.4997L31.5852 21.0169L28.9881 29.1315L22.4131 29.5418Z" fill="white"/>
<path d="M54.4614 23.0725L47.6223 23.5L44.9391 28.1342L38.1621 28.5579L53.0538 5.17048L61.3235 4.6542L61.0747 27.1264L54.1418 27.5597L54.4624 23.0735L54.4614 23.0725ZM50.3572 18.676L54.8652 18.3944L55.4116 10.5318L55.0853 10.5519L50.3572 18.675V18.676Z" fill="white"/>
<path d="M70.1827 20.0044C70.1358 21.3767 71.6315 22.2174 73.4343 22.1048C75.3769 21.9836 76.8544 21.0665 76.996 19.8126C77.0965 18.9193 76.4984 18.4746 74.5884 18.0328L72.1358 17.4697C68.7062 16.6729 66.9435 14.5104 67.3043 11.3134C67.8076 6.84626 72.2927 3.34488 77.9204 2.99369C83.5165 2.64441 86.8303 5.42529 86.2762 9.78651L80.2448 10.1635C80.3988 8.79975 79.0783 7.77768 77.1663 7.89697C75.5338 7.99908 74.1176 8.92763 73.9865 10.0881C73.8764 11.0596 74.4487 11.74 76.1501 12.116L78.6649 12.6752C82.4447 13.5131 83.9634 15.2385 83.5959 18.4985C83.0533 23.3101 78.6323 26.6521 72.4305 27.0396C66.8497 27.3879 63.379 24.9124 63.934 20.3956L70.1827 20.0053V20.0044Z" fill="white"/>
<path d="M93.8584 7.84925L87.625 8.23861L89.3379 2.90207L108.395 1.71109L106.682 7.04762L100.449 7.43698" fill="white"/>
<path d="M4.88188 9.41528L22.0539 17.6835L3.02832 30.4513L4.88188 9.41528Z" fill="white"/>
<path d="M4.65289 29.1295L6.06435 27.9691C6.00885 27.7086 5.97153 27.4261 5.95526 27.1217L5.5122 19.1398L5.15623 12.7344L5.06915 11.1579C4.9658 9.28836 5.68254 7.84925 6.89017 7.11061C6.57439 7.16692 6.27009 7.26903 5.98205 7.41695C5.98205 7.41695 5.98014 7.41695 5.97918 7.4179C5.95048 7.43222 5.92177 7.44844 5.89402 7.46371C5.88349 7.46943 5.87201 7.47611 5.86148 7.48184C5.83756 7.4952 5.81268 7.50951 5.78876 7.52383C5.77249 7.53337 5.75526 7.54387 5.739 7.55437C5.71986 7.56677 5.69976 7.57823 5.68062 7.59063C5.64522 7.61354 5.60981 7.63739 5.5744 7.66221C5.56484 7.66889 5.55527 7.67652 5.5457 7.6832C5.51699 7.7042 5.48732 7.72519 5.45862 7.74714C5.45 7.75382 5.44139 7.7605 5.43278 7.76718C5.40024 7.79199 5.36771 7.81776 5.33613 7.84448C5.3323 7.84734 5.32847 7.85021 5.3256 7.85402C4.54954 8.50582 3.95433 9.53839 3.6663 10.8897L3.2376 12.8985L1.9046 19.1522L0.143863 27.4156C-0.126946 28.6867 -0.00541715 29.6764 0.424242 30.332C1.4759 30.8559 3.00028 30.4885 4.6548 29.1276L4.65289 29.1295Z" fill="#009CDB"/>
<path d="M22.2922 16.0554L15.9966 11.9242L9.70096 7.79295C8.7402 7.16214 7.76701 6.95315 6.88377 7.10966C5.67614 7.8483 4.95844 9.28741 5.06275 11.1569L5.15078 12.7334C5.42446 12.7678 5.7058 12.8251 5.99383 12.9062L13.5411 15.0448L19.5975 16.7607L21.0883 17.1834C22.852 17.6835 23.6673 18.7542 23.517 20.0273C23.517 20.032 23.517 20.0368 23.5161 20.0416C24.3103 18.6464 23.9409 17.1395 22.2922 16.0564V16.0554Z" fill="#FF6D2D"/>
<path d="M4.86679 30.5181L6.78733 29.5332L6.82274 29.5151L12.9097 26.3935L20.9661 22.2623C22.2024 21.6277 23.0627 20.848 23.522 20.0292C23.6732 18.7561 22.8579 17.6854 21.0933 17.1853L19.6025 16.7626C19.3824 16.9906 19.1355 17.2178 18.8618 17.443L11.7576 23.2863L6.0639 27.9691L4.65243 29.1295C2.99791 30.4904 1.47353 30.8578 0.421875 30.3339C1.15009 31.4447 2.76634 31.5945 4.86583 30.5181H4.86679Z" fill="#6CC72B"/>
</g>
<defs>
<clipPath id="clip0_1600_6965">
<rect width="129" height="35.1818" fill="white"/>
</clipPath>
</defs>
</svg>
